<svg version="1.2" xmlns="http://www.w3.org/2000/svg" viewBox="0 0 400 400" width="400" height="400">
	<title>New Project</title>
	<defs>
		<linearGradient id="g1" x2="1" gradientUnits="userSpaceOnUse" gradientTransform="matrix(42.912,0,0,43.445,325.985,71.583)">
			<stop offset="0" stop-color="#77b0e4"/>
			<stop offset="1" stop-color="#f6a531"/>
		</linearGradient>
		<linearGradient id="g2" x2="1" gradientUnits="userSpaceOnUse" gradientTransform="matrix(96.972,0,0,117.474,303.028,140.881)">
			<stop offset="0" stop-color="#f6a531"/>
			<stop offset="1" stop-color="#77b0e4"/>
		</linearGradient>
		<linearGradient id="g3" x2="1" gradientUnits="userSpaceOnUse" gradientTransform="matrix(348.478,0,0,340.72,25.574,30)">
			<stop offset="0" stop-color="#f6a531"/>
			<stop offset="1" stop-color="#77b0e4"/>
		</linearGradient>
		<linearGradient id="g4" x2="1" gradientUnits="userSpaceOnUse" gradientTransform="matrix(-35.947,-34.176,33.553,-35.291,12.958,269.717)">
			<stop offset="0" stop-color="#006838"/>
			<stop offset="1" stop-color="#47e51d"/>
		</linearGradient>
		<linearGradient id="g5" x2="1" gradientUnits="userSpaceOnUse" gradientTransform="matrix(27.383,-23.088,17.458,20.706,44.831,233.033)">
			<stop offset="0" stop-color="#006838"/>
			<stop offset="1" stop-color="#47e51d"/>
		</linearGradient>
		<linearGradient id="g6" x2="1" gradientUnits="userSpaceOnUse" gradientTransform="matrix(19.811,-57.233,89.358,30.931,13.739,212.739)">
			<stop offset="0" stop-color="#006838"/>
			<stop offset="1" stop-color="#47e51d"/>
		</linearGradient>
		<linearGradient id="g7" x2="1" gradientUnits="userSpaceOnUse" gradientTransform="matrix(-14.466,-37.148,91.884,-35.782,-41.791,270.08)">
			<stop offset="0" stop-color="#006838"/>
			<stop offset="1" stop-color="#47e51d"/>
		</linearGradient>
		<linearGradient id="g8" x2="1" gradientUnits="userSpaceOnUse" gradientTransform="matrix(.009,-0.13,.238,.016,49.081,218.136)">
			<stop offset="0" stop-color="#006838"/>
			<stop offset="1" stop-color="#47e51d"/>
		</linearGradient>
		<linearGradient id="g9" x2="1" gradientUnits="userSpaceOnUse" gradientTransform="matrix(3.003,-45.752,135.39,8.886,-78.669,242.665)">
			<stop offset="0" stop-color="#006838"/>
			<stop offset="1" stop-color="#47e51d"/>
		</linearGradient>
		<linearGradient id="g10" x2="1" gradientUnits="userSpaceOnUse" gradientTransform="matrix(.055,-0.838,.752,.049,59.407,199.839)">
			<stop offset="0" stop-color="#006838"/>
			<stop offset="1" stop-color="#47e51d"/>
		</linearGradient>
		<linearGradient id="g11" x2="1" gradientUnits="userSpaceOnUse" gradientTransform="matrix(46.065,0,0,49.78,30.759,262.079)">
			<stop offset="0" stop-color="#700d2a"/>
			<stop offset=".565" stop-color="#dd4536"/>
			<stop offset="1" stop-color="#f7a458"/>
		</linearGradient>
		<linearGradient id="g12" x2="1" gradientUnits="userSpaceOnUse" gradientTransform="matrix(57.953,0,0,10.402,24.815,253.713)">
			<stop offset="0" stop-color="#700d2a"/>
			<stop offset=".565" stop-color="#dd4536"/>
			<stop offset="1" stop-color="#f7a458"/>
		</linearGradient>
		<linearGradient id="g13" x2="1" gradientUnits="userSpaceOnUse" gradientTransform="matrix(67.797,0,0,97.686,306.339,214.126)">
			<stop offset="0" stop-color="#700d2a"/>
			<stop offset=".565" stop-color="#dd4536"/>
			<stop offset="1" stop-color="#f7a458"/>
		</linearGradient>
		<linearGradient id="g14" x2="1" gradientUnits="userSpaceOnUse" gradientTransform="matrix(0,171.484,-130.622,0,271.706,81.695)">
			<stop offset="0" stop-color="#27aae1"/>
			<stop offset="1" stop-color="#0d1b5a"/>
		</linearGradient>
		<linearGradient id="g15" x2="1" gradientUnits="userSpaceOnUse" gradientTransform="matrix(230.85,0,0,134.347,86.016,89.745)">
			<stop offset="0" stop-color="#e4f2ff"/>
			<stop offset="1" stop-color="#91d0c5"/>
		</linearGradient>
		<linearGradient id="g16" x2="1" gradientUnits="userSpaceOnUse" gradientTransform="matrix(0,130.35,-245.209,0,234.003,183.435)">
			<stop offset="0" stop-color="#27aae1"/>
			<stop offset="1" stop-color="#0d1b5a"/>
		</linearGradient>
		<linearGradient id="g17" x2="1" gradientUnits="userSpaceOnUse" gradientTransform="matrix(63.672,0,0,109.808,76.445,187.93)">
			<stop offset="0" stop-color="#e4f2ff"/>
			<stop offset="1" stop-color="#91d0c5"/>
		</linearGradient>
		<linearGradient id="g18" x2="1" gradientUnits="userSpaceOnUse" gradientTransform="matrix(37.289,0,0,101.067,260.841,206.352)">
			<stop offset="0" stop-color="#23538c"/>
			<stop offset="1" stop-color="#230482"/>
		</linearGradient>
		<linearGradient id="g19" x2="1" gradientUnits="userSpaceOnUse" gradientTransform="matrix(9.561,0,0,16.06,255.752,168.609)">
			<stop offset="0" stop-color="#23538c"/>
			<stop offset="1" stop-color="#230482"/>
		</linearGradient>
		<linearGradient id="g20" x2="1" gradientUnits="userSpaceOnUse" gradientTransform="matrix(28.305,0,0,37.455,273.134,151.142)">
			<stop offset="0" stop-color="#23538c"/>
			<stop offset="1" stop-color="#230482"/>
		</linearGradient>
		<linearGradient id="g21" x2="1" gradientUnits="userSpaceOnUse" gradientTransform="matrix(61.323,0,0,55.039,171.333,248.743)">
			<stop offset="0" stop-color="#23538c"/>
			<stop offset="1" stop-color="#230482"/>
		</linearGradient>
		<linearGradient id="g22" x2="1" gradientUnits="userSpaceOnUse" gradientTransform="matrix(52.76,0,0,57.289,163.156,250.906)">
			<stop offset="0" stop-color="#23538c"/>
			<stop offset="1" stop-color="#230482"/>
		</linearGradient>
		<linearGradient id="g23" x2="1" gradientUnits="userSpaceOnUse" gradientTransform="matrix(0,-10.736,.334,0,197.851,321.045)">
			<stop offset="0" stop-color="#700d2a"/>
			<stop offset=".565" stop-color="#dd4536"/>
			<stop offset="1" stop-color="#f7a458"/>
		</linearGradient>
	</defs>
	<style>
		.s0 { fill: url(#g1) } 
		.s1 { fill: url(#g2) } 
		.s2 { fill: url(#g3) } 
		.s3 { fill: url(#g4) } 
		.s4 { fill: url(#g5) } 
		.s5 { fill: url(#g6) } 
		.s6 { fill: url(#g7) } 
		.s7 { fill: url(#g8) } 
		.s8 { fill: url(#g9) } 
		.s9 { fill: url(#g10) } 
		.s10 { fill: url(#g11) } 
		.s11 { fill: url(#g12) } 
		.s12 { fill: #84d2e6 } 
		.s13 { fill: #97deef } 
		.s14 { fill: #ffffff } 
		.s15 { fill: #f2ec22 } 
		.s16 { fill: #a7a7a7 } 
		.s17 { fill: #dbd8d5 } 
		.s18 { fill: #7c7b79 } 
		.s19 { fill: #23538c } 
		.s20 { fill: #144270 } 
		.s21 { fill: #0e2142 } 
		.s22 { fill: #fcd7a3 } 
		.s23 { fill: #0f2145 } 
		.s24 { fill: #f23436 } 
		.s25 { fill: #fe6f71 } 
		.s26 { fill: url(#g13) } 
		.s27 { mix-blend-mode: multiply;fill: #d3d3d3 } 
		.s28 { fill: #dbd9dd } 
		.s29 { fill: url(#g14) } 
		.s30 { fill: url(#g15) } 
		.s31 { fill: #d7f4f9 } 
		.s32 { fill: url(#g16) } 
		.s33 { fill: url(#g17) } 
		.s34 { fill: #f6a531 } 
		.s35 { fill: #f6a531;stroke: #000000;stroke-miterlimit:10 } 
		.s36 { fill: #028b99 } 
		.s37 { fill: #fcfcd4 } 
		.s38 { fill: #dd4536 } 
		.s39 { fill: #2bb673 } 
		.s40 { fill: #1c75bc } 
		.s41 { fill: #14035b } 
		.s42 { fill: #0e0e30 } 
		.s43 { fill: url(#g18) } 
		.s44 { fill: #230482 } 
		.s45 { fill: #ffc2a9 } 
		.s46 { fill: url(#g19) } 
		.s47 { fill: url(#g20) } 
		.s48 { fill: #efab92 } 
		.s49 { fill: #ef9d84 } 
		.s50 { fill: #191f54 } 
		.s51 { fill: url(#g21) } 
		.s52 { fill: url(#g22) } 
		.s53 { fill: #e29d88 } 
		.s54 { fill: #617375 } 
		.s55 { fill: #889ca0 } 
		.s56 { fill: url(#g23) } 
	</style>
	<g id="OBJECTS">
		<g id="&lt;Group&gt;">
			<g id="&lt;Group&gt;">
				<g id="&lt;Group&gt;">
					<g id="&lt;Group&gt;">
						<g id="&lt;Group&gt;">
						</g>
					</g>
				</g>
				<g id="&lt;Group&gt;" style="mix-blend-mode: multiply">
					<path id="&lt;Path&gt;" class="s0" d="m359.02 77.97c-5.86-5.31-14.43-7.81-22.01-5.56-3.46 1.03-6.63 2.99-9.09 5.63-3.48 6.22-1.87 14.18 1.65 20.38 5.14 9.09 14.62 16 25.05 16.57 3.69 0.21 7.65-0.47 10.4-2.95 3.49-3.15 4.17-8.37 3.78-13.06-0.67-7.88-3.93-15.69-9.78-21.01z"/>
				</g>
				<g id="&lt;Group&gt;" style="mix-blend-mode: multiply">
					<path id="&lt;Path&gt;" class="s1" d="m366.82 142.37c-7.13-2.24-14.79-1.89-21.83 0.62-11.32 4.03-30.06 13.7-38.17 35-12.03 31.57 6.76 69.9 24.8 77.41 18.04 7.52 52.61 0.76 63.13-21.04 9.54-19.76 9.2-80.3-27.93-91.99z"/>
				</g>
				<g id="&lt;Group&gt;">
					<g id="&lt;Group&gt;">
					</g>
					<g id="&lt;Group&gt;">
						<g id="&lt;Group&gt;">
							<g id="&lt;Group&gt;">
							</g>
						</g>
					</g>
					<g id="&lt;Group&gt;">
						<g id="&lt;Group&gt;">
							<g id="&lt;Group&gt;">
							</g>
						</g>
					</g>
				</g>
				<g id="&lt;Group&gt;">
					<g id="&lt;Group&gt;" style="mix-blend-mode: multiply">
						<path id="&lt;Path&gt;" class="s2" d="m293.2 218.73c-9.39-43.55 51.54-73.94 22.96-119.34-31.58-50.16-88.92-74.4-147.34-68.53-14.73 1.48-28.64 4.44-40.16 8.83-41.3 15.74-74.86 48.25-90.91 89.39-12.18 31.26-17.72 65.14-4.7 97.02 5.67 13.87 17.77 25.41 21.64 39.69 5.59 20.66 0.2 43.47 7.43 63.59 10.82 30.09 46.9 36.3 74.52 30.61 21.84-4.5 41.92-18.16 64.34-20.01 25.89-2.14 45.29 12.12 67.6 22.07 35.58 15.87 91.4 12.61 103.65-32.03 4.74-17.26 0.07-36.81-11.96-50.06-19.21-21.17-60.39-30.29-67.07-61.23z"/>
					</g>
					<g id="&lt;Group&gt;">
						<g id="&lt;Group&gt;">
							<g id="&lt;Group&gt;">
								<path id="&lt;Path&gt;" class="s3" d="m34.35 220.57c-7.21-2.83 0.77 10.82-0.51 9.27-1.29-1.54-15.97-28.58-20.61-23.69-4.63 4.89 3.35 12.62 2.32 12.1-1.03-0.51-15.71-17.51-16.22-8.75-0.52 8.75 13.65 17 13.65 17 0 0-12.37-2.84-6.96 2.57 5.41 5.41 17.77 9.01 17.77 9.01 0 0-12.88-1.28-7.21 3.09 5.67 4.38 17.77 6.96 17.77 6.96 0 0-11.59 0.26-5.67 2.32 5.93 2.06 23.7 7.21 23.7 7.21 0 0-10.82-34.26-18.03-37.09z"/>
								<path id="&lt;Path&gt;" class="s4" d="m83.8 230.87c-2.58 1.03 1.29-2.57 2.06-11.59 0.77-9.01-15.2 16.49-17 17.77-1.8 1.29 0.52-1.28-1.03-8.49-1.54-7.22-15.97 29.61-15.97 29.61 0 0 27.04-7.47 32.45-9.27 5.41-1.8-2.57-4.38-2.57-4.38 0 0 12.1 0.78 19.06-2.06 6.95-2.83-7.47-4.89-9.02-6.18-1.54-1.29 7.21-1.8 13.14-12.36 5.92-10.56-18.55 5.92-21.12 6.95z"/>
								<path id="&lt;Path&gt;" class="s5" d="m84.83 210.27c-2.32 1.03 6.69-10.56 7.47-18.28 0.77-7.73-16.23 16.22-17.77 19.31-1.55 3.09 1.28-5.41-1.03-13.13-2.32-7.73-9.79 22.4-11.08 25.23-1.29 2.84-0.26-2.83-3.6-10.81-3.35-7.99-6.44 44.29-6.18 45.58 0 0 12.1-11.33 15.71-18.03 3.6-6.69-1.55-5.4-1.55-5.4 0 0 8.5-4.12 13.13-7.99 4.64-3.86-4.37-6.18-4.12-6.95 0.26-0.77 14.17-5.41 19.06-11.07 4.9-5.67-7.72 0.51-10.04 1.54z"/>
								<path id="&lt;Path&gt;" class="s6" d="m49.03 229.84c0 0 2.83-9.01 3.35-15.45 0.51-6.44-5.93-2.06-5.93-2.06 0 0 1.55-11.85-0.51-20.6-2.06-8.76-3.35 8.24-4.12 9.27-0.77 1.03-2.06-4.38-9.27-12.62-7.21-8.24 5.15 19.06 5.92 22.92 0.77 3.86-1.54-2.06-9.79-4.64-8.24-2.57 11.08 26.02 11.08 27.3 0 1.29-1.29-2.06-7.73-4.12-6.44-2.06 19.32 25.76 20.35 27.82 0 0 2.06-18.29 2.83-25.5 0.77-7.21-6.18-2.32-6.18-2.32z"/>
								<path id="&lt;Path&gt;" class="s7" d="m49.25 217.92q0.02 0.05 0.04 0.08c0.14 0.27 0.14 0.19-0.04-0.08z"/>
								<path id="&lt;Path&gt;" class="s8" d="m59.07 185.55c0 0-0.77-10.3-6.18-15.2-5.4-4.89-1.8 25.76-2.06 27.3-0.25 1.55-1.28-3.6-7.21-5.66-5.84-2.04 4.84 24.22 5.63 25.93 0.18 0.27 0.18 0.35 0.04 0.08q-0.02-0.03-0.04-0.08c-0.47-0.72-2.27-2.83-6.4-3.01-5.67-0.26 9.27 42.23 9.27 43 0 0 10.04-11.33 11.07-16.48 1.03-5.15-5.92-1.8-5.92-1.8 0 0 5.41-4.89 9.27-15.45 3.87-10.56-7.98-2.84-8.24-3.61-0.26-0.77 8.76-6.95 11.08-19.83 1.77-9.84-5.03-5.1-8.33-2.31-1.04 1.01-1.72 1.54-1.72 1.54 0 0 0.69-0.68 1.72-1.54 2.94-2.88 8.79-9.73 10.13-19.84 1.8-13.65-12.11 6.96-12.11 6.96z"/>
								<path id="&lt;Path&gt;" class="s9" d="m61.05 198.43c-1.03 0.86-1.72 1.54-1.72 1.54 0 0 0.68-0.53 1.72-1.54z"/>
								<g id="&lt;Group&gt;">
									<path id="&lt;Path&gt;" class="s10" d="m38.19 311.86h31.2l7.43-49.78h-46.06z"/>
									<g id="&lt;Group&gt;">
										<path id="&lt;Path&gt;" class="s11" d="m80.78 253.71h-53.97c-1.1 0-2 0.89-2 2v6.41c0 1.1 0.9 1.99 2 1.99h53.97c1.1 0 1.99-0.89 1.99-1.99v-6.41c0-1.11-0.89-2-1.99-2z"/>
									</g>
								</g>
							</g>
							<g id="&lt;Group&gt;">
								<g id="&lt;Group&gt;">
									<g id="&lt;Group&gt;">
										<g id="&lt;Group&gt;">
											<path id="&lt;Path&gt;" class="s12" d="m372.14 133.7l-16.14-5.06c-1.47-0.46-3.04 0.35-3.52 1.82l-33.9 105.73c-0.47 1.47 0.33 3.04 1.79 3.52l16.72 5.53c1.49 0.5 3.09-0.33 3.56-1.82l33.33-106.2c0.46-1.48-0.36-3.05-1.84-3.52z"/>
											<path id="&lt;Path&gt;" class="s13" d="m352.48 130.46l-33.9 105.73c-0.47 1.47 0.33 3.04 1.79 3.52l8.95 2.96 35.67-111.21-8.99-2.82c-1.47-0.46-3.04 0.35-3.52 1.82z"/>
											<g id="&lt;Group&gt;">
												<g id="&lt;Group&gt;">
													<path id="&lt;Path&gt;" class="s14" d="m359.41 141.02l-7-2.24c-0.24-0.08-0.51 0.05-0.59 0.3-0.08 0.25 0.06 0.52 0.3 0.6l7 2.24c0.25 0.08 0.52-0.05 0.6-0.3 0.08-0.25-0.06-0.52-0.31-0.6z"/>
													<path id="&lt;Path&gt;" class="s14" d="m355.46 142.26l-3.77-1.21c-0.25-0.08-0.52 0.05-0.6 0.3-0.08 0.25 0.06 0.52 0.31 0.6l3.77 1.21c0.25 0.08 0.52-0.06 0.6-0.31 0.08-0.25-0.06-0.51-0.31-0.59z"/>
													<path id="&lt;Path&gt;" class="s14" d="m354.74 144.53l-3.78-1.22c-0.25-0.08-0.52 0.06-0.6 0.31-0.08 0.25 0.06 0.52 0.31 0.6l3.78 1.21c0.25 0.08 0.51-0.06 0.59-0.31 0.08-0.25-0.05-0.51-0.3-0.59z"/>
													<path id="&lt;Path&gt;" class="s14" d="m353.97 146.93l-3.78-1.21c-0.25-0.08-0.52 0.06-0.6 0.31-0.08 0.25 0.06 0.51 0.31 0.59l3.78 1.21c0.24 0.08 0.51-0.05 0.59-0.3 0.08-0.25-0.06-0.52-0.3-0.6z"/>
													<path id="&lt;Path&gt;" class="s14" d="m353.28 149.06l-3.78-1.21c-0.25-0.08-0.51 0.06-0.59 0.31-0.08 0.25 0.05 0.52 0.3 0.6l3.78 1.21c0.25 0.08 0.52-0.06 0.6-0.31 0.08-0.25-0.06-0.52-0.31-0.6z"/>
												</g>
												<g id="&lt;Group&gt;">
													<path id="&lt;Path&gt;" class="s14" d="m355.74 152.47l-7-2.25c-0.25-0.08-0.51 0.06-0.59 0.31-0.08 0.25 0.06 0.51 0.3 0.59l7 2.25c0.25 0.08 0.52-0.06 0.6-0.31 0.08-0.25-0.06-0.51-0.31-0.59z"/>
													<path id="&lt;Path&gt;" class="s14" d="m351.79 153.7l-3.77-1.21c-0.25-0.08-0.52 0.06-0.6 0.31-0.08 0.25 0.06 0.51 0.31 0.59l3.77 1.21c0.25 0.08 0.52-0.05 0.6-0.3 0.08-0.25-0.06-0.52-0.31-0.6z"/>
													<path id="&lt;Path&gt;" class="s14" d="m351.07 155.97l-3.78-1.21c-0.25-0.08-0.52 0.06-0.6 0.31-0.08 0.25 0.06 0.51 0.31 0.59l3.78 1.21c0.25 0.08 0.51-0.05 0.59-0.3 0.08-0.25-0.05-0.52-0.3-0.6z"/>
													<path id="&lt;Path&gt;" class="s14" d="m350.3 158.38l-3.78-1.22c-0.25-0.08-0.52 0.06-0.6 0.31-0.08 0.25 0.06 0.52 0.31 0.6l3.78 1.21c0.24 0.08 0.51-0.06 0.59-0.31 0.08-0.25-0.06-0.51-0.3-0.59z"/>
													<path id="&lt;Path&gt;" class="s14" d="m349.61 160.51l-3.78-1.21c-0.25-0.08-0.51 0.06-0.59 0.3-0.08 0.25 0.05 0.52 0.3 0.6l3.78 1.21c0.25 0.08 0.52-0.05 0.6-0.3 0.08-0.25-0.06-0.52-0.31-0.6z"/>
												</g>
												<g id="&lt;Group&gt;">
													<path id="&lt;Path&gt;" class="s14" d="m352.07 163.91l-7-2.24c-0.25-0.08-0.51 0.05-0.59 0.3-0.08 0.25 0.05 0.52 0.3 0.6l7 2.24c0.25 0.08 0.52-0.05 0.6-0.3 0.08-0.25-0.06-0.52-0.31-0.6z"/>
													<path id="&lt;Path&gt;" class="s14" d="m348.12 165.15l-3.77-1.21c-0.25-0.08-0.52 0.05-0.6 0.3-0.08 0.25 0.06 0.52 0.31 0.6l3.77 1.21c0.25 0.08 0.52-0.06 0.6-0.31 0.08-0.25-0.06-0.51-0.31-0.59z"/>
													<path id="&lt;Path&gt;" class="s14" d="m347.4 167.42l-3.78-1.22c-0.25-0.08-0.52 0.06-0.6 0.31-0.08 0.25 0.06 0.52 0.31 0.6l3.78 1.21c0.25 0.08 0.51-0.06 0.59-0.31 0.08-0.25-0.05-0.51-0.3-0.59z"/>
													<path id="&lt;Path&gt;" class="s14" d="m346.62 169.82l-3.77-1.21c-0.25-0.08-0.52 0.06-0.6 0.31-0.08 0.25 0.06 0.51 0.31 0.59l3.78 1.21c0.24 0.08 0.51-0.05 0.59-0.3 0.08-0.25-0.06-0.52-0.31-0.6z"/>
													<path id="&lt;Path&gt;" class="s14" d="m345.94 171.95l-3.78-1.21c-0.25-0.08-0.51 0.06-0.59 0.31-0.08 0.25 0.05 0.52 0.3 0.6l3.78 1.21c0.25 0.08 0.52-0.06 0.6-0.31 0.08-0.25-0.06-0.52-0.31-0.6z"/>
												</g>
												<g id="&lt;Group&gt;">
													<path id="&lt;Path&gt;" class="s14" d="m348.4 175.36l-7-2.25c-0.25-0.08-0.51 0.06-0.59 0.31-0.08 0.25 0.05 0.51 0.3 0.59l7 2.25c0.25 0.08 0.52-0.06 0.6-0.31 0.08-0.25-0.06-0.51-0.31-0.59z"/>
													<path id="&lt;Path&gt;" class="s14" d="m344.45 176.59l-3.77-1.21c-0.25-0.08-0.52 0.06-0.6 0.31-0.08 0.25 0.06 0.51 0.31 0.59l3.77 1.21c0.25 0.08 0.52-0.05 0.6-0.3 0.08-0.25-0.06-0.52-0.31-0.6z"/>
													<path id="&lt;Path&gt;" class="s14" d="m343.73 178.86l-3.78-1.21c-0.25-0.08-0.52 0.06-0.6 0.31-0.08 0.25 0.06 0.51 0.31 0.59l3.78 1.21c0.25 0.08 0.51-0.05 0.59-0.3 0.08-0.25-0.05-0.52-0.3-0.6z"/>
													<path id="&lt;Path&gt;" class="s14" d="m342.95 181.27l-3.77-1.21c-0.25-0.08-0.52 0.05-0.6 0.3-0.08 0.25 0.06 0.52 0.31 0.6l3.77 1.21c0.25 0.08 0.52-0.06 0.6-0.31 0.08-0.25-0.06-0.51-0.31-0.59z"/>
													<path id="&lt;Path&gt;" class="s14" d="m342.27 183.4l-3.78-1.21c-0.25-0.08-0.51 0.06-0.59 0.3-0.08 0.25 0.05 0.52 0.3 0.6l3.78 1.21c0.25 0.08 0.52-0.05 0.6-0.3 0.08-0.25-0.06-0.52-0.31-0.6z"/>
												</g>
												<g id="&lt;Group&gt;">
													<path id="&lt;Path&gt;" class="s14" d="m344.73 186.8l-7-2.24c-0.25-0.08-0.51 0.05-0.59 0.3-0.08 0.25 0.05 0.52 0.3 0.6l7 2.24c0.25 0.08 0.52-0.05 0.6-0.3 0.08-0.25-0.06-0.52-0.31-0.6z"/>
													<path id="&lt;Path&gt;" class="s14" d="m340.78 188.04l-3.77-1.21c-0.25-0.08-0.52 0.05-0.6 0.3-0.08 0.25 0.06 0.52 0.31 0.6l3.77 1.21c0.25 0.08 0.52-0.06 0.6-0.31 0.08-0.25-0.06-0.51-0.31-0.59z"/>
													<path id="&lt;Path&gt;" class="s14" d="m340.06 190.31l-3.78-1.22c-0.25-0.08-0.52 0.06-0.6 0.31-0.08 0.25 0.06 0.52 0.31 0.6l3.78 1.21c0.25 0.08 0.51-0.06 0.59-0.31 0.08-0.25-0.05-0.51-0.3-0.59z"/>
													<path id="&lt;Path&gt;" class="s14" d="m339.28 192.71l-3.77-1.21c-0.25-0.08-0.52 0.06-0.6 0.31-0.08 0.25 0.06 0.51 0.31 0.59l3.77 1.21c0.25 0.08 0.52-0.05 0.6-0.3 0.08-0.25-0.06-0.52-0.31-0.6z"/>
													<path id="&lt;Path&gt;" class="s14" d="m338.6 194.84l-3.78-1.21c-0.25-0.08-0.51 0.06-0.59 0.31-0.08 0.25 0.05 0.52 0.3 0.6l3.78 1.21c0.25 0.08 0.52-0.06 0.6-0.31 0.08-0.25-0.06-0.52-0.31-0.6z"/>
												</g>
												<g id="&lt;Group&gt;">
													<path id="&lt;Path&gt;" class="s14" d="m341.06 198.25l-7-2.25c-0.25-0.08-0.51 0.06-0.59 0.31-0.08 0.25 0.05 0.51 0.3 0.59l7 2.25c0.25 0.08 0.52-0.06 0.6-0.31 0.08-0.25-0.06-0.51-0.31-0.59z"/>
													<path id="&lt;Path&gt;" class="s14" d="m337.11 199.48l-3.77-1.21c-0.25-0.08-0.52 0.06-0.6 0.31-0.08 0.25 0.06 0.51 0.31 0.59l3.77 1.22c0.25 0.08 0.52-0.06 0.6-0.31 0.08-0.25-0.06-0.52-0.31-0.6z"/>
													<path id="&lt;Path&gt;" class="s14" d="m336.39 201.75l-3.78-1.21c-0.25-0.08-0.52 0.06-0.6 0.31-0.08 0.25 0.06 0.51 0.31 0.59l3.78 1.21c0.25 0.08 0.51-0.05 0.59-0.3 0.08-0.25-0.06-0.52-0.3-0.6z"/>
													<path id="&lt;Path&gt;" class="s14" d="m335.61 204.16l-3.77-1.21c-0.25-0.08-0.52 0.05-0.6 0.3-0.08 0.25 0.06 0.52 0.31 0.6l3.77 1.21c0.25 0.08 0.52-0.06 0.6-0.31 0.08-0.25-0.06-0.51-0.31-0.59z"/>
													<path id="&lt;Path&gt;" class="s14" d="m334.93 206.29l-3.78-1.21c-0.25-0.08-0.51 0.06-0.59 0.31-0.08 0.24 0.05 0.51 0.3 0.59l3.78 1.21c0.25 0.08 0.52-0.05 0.6-0.3 0.08-0.25-0.06-0.52-0.31-0.6z"/>
												</g>
												<g id="&lt;Group&gt;">
													<path id="&lt;Path&gt;" class="s14" d="m337.39 209.69l-7-2.24c-0.25-0.08-0.51 0.05-0.59 0.3-0.08 0.25 0.05 0.52 0.3 0.6l7 2.24c0.25 0.08 0.52-0.05 0.6-0.3 0.08-0.25-0.06-0.52-0.31-0.6z"/>
													<path id="&lt;Path&gt;" class="s14" d="m333.44 210.93l-3.77-1.21c-0.25-0.08-0.52 0.05-0.6 0.3-0.08 0.25 0.06 0.52 0.31 0.6l3.77 1.21c0.25 0.08 0.52-0.06 0.6-0.31 0.08-0.25-0.06-0.51-0.31-0.59z"/>
													<path id="&lt;Path&gt;" class="s14" d="m332.72 213.2l-3.78-1.22c-0.25-0.08-0.52 0.06-0.6 0.31-0.08 0.25 0.06 0.52 0.31 0.6l3.78 1.21c0.25 0.08 0.51-0.06 0.59-0.31 0.08-0.25-0.06-0.51-0.3-0.59z"/>
													<path id="&lt;Path&gt;" class="s14" d="m331.94 215.6l-3.77-1.21c-0.25-0.08-0.52 0.06-0.6 0.31-0.08 0.25 0.06 0.51 0.31 0.59l3.77 1.21c0.25 0.08 0.52-0.05 0.6-0.3 0.08-0.25-0.06-0.52-0.31-0.6z"/>
													<path id="&lt;Path&gt;" class="s14" d="m331.26 217.73l-3.78-1.21c-0.25-0.08-0.51 0.06-0.59 0.31-0.08 0.25 0.05 0.52 0.3 0.6l3.78 1.21c0.25 0.08 0.52-0.06 0.6-0.31 0.08-0.25-0.06-0.52-0.31-0.6z"/>
												</g>
												<g id="&lt;Group&gt;">
													<path id="&lt;Path&gt;" class="s14" d="m333.72 221.14l-7-2.25c-0.25-0.08-0.51 0.06-0.59 0.31-0.08 0.25 0.05 0.51 0.3 0.59l7 2.25c0.25 0.08 0.52-0.06 0.6-0.31 0.08-0.25-0.06-0.51-0.31-0.59z"/>
													<path id="&lt;Path&gt;" class="s14" d="m329.77 222.37l-3.77-1.21c-0.25-0.08-0.52 0.06-0.6 0.31-0.08 0.25 0.06 0.51 0.31 0.59l3.77 1.22c0.25 0.08 0.52-0.06 0.6-0.31 0.08-0.25-0.06-0.52-0.31-0.6z"/>
													<path id="&lt;Path&gt;" class="s14" d="m329.05 224.64l-3.78-1.21c-0.25-0.08-0.52 0.06-0.6 0.31-0.08 0.25 0.06 0.51 0.31 0.59l3.78 1.21c0.24 0.08 0.51-0.05 0.59-0.3 0.08-0.25-0.06-0.52-0.3-0.6z"/>
													<path id="&lt;Path&gt;" class="s14" d="m328.27 227.05l-3.77-1.21c-0.25-0.08-0.52 0.05-0.6 0.3-0.08 0.25 0.06 0.52 0.31 0.6l3.77 1.21c0.25 0.08 0.52-0.06 0.6-0.31 0.08-0.25-0.06-0.51-0.31-0.59z"/>
													<path id="&lt;Path&gt;" class="s14" d="m327.59 229.18l-3.78-1.21c-0.25-0.08-0.51 0.06-0.59 0.31-0.08 0.24 0.05 0.51 0.3 0.59l3.78 1.21c0.25 0.08 0.52-0.05 0.6-0.3 0.08-0.25-0.06-0.52-0.31-0.6z"/>
												</g>
											</g>
										</g>
										<g id="&lt;Group&gt;">
											<g id="&lt;Group&gt;">
												<path id="&lt;Path&gt;" class="s15" d="m364.11 156.03l-3.51-0.34c-1.07-0.11-2.02 0.67-2.12 1.74l-0.96 9.65 7.37 0.73 0.96-9.65c0.1-1.07-0.68-2.02-1.74-2.13z"/>
											</g>
											<path id="&lt;Path&gt;" class="s16" d="m352.97 250.97l7.55-17.76-11.48-1.13z"/>
											<path id="&lt;Path&gt;" class="s17" d="m353.6 249.48l6.92-16.27-5.26-0.52z"/>
											<path id="&lt;Path&gt;" class="s18" d="m354.37 247.66l6.15-14.45-4.67-0.46z"/>
											<path id="&lt;Path&gt;" class="s19" d="m365.18 166.17l-7.61-0.75c-1.12-0.11-2.12 0.7-2.23 1.82l-6.33 64.24c-0.11 1.11 0.7 2.11 1.82 2.22l7.61 0.75c1.12 0.11 2.11-0.71 2.23-1.82l6.33-64.24c0.11-1.12-0.7-2.11-1.82-2.22z"/>
											<path id="&lt;Path&gt;" class="s20" d="m355.34 167.24l-6.33 64.24c-0.11 1.11 0.7 2.11 1.82 2.22l3.66 0.36 6.73-68.28-3.65-0.36c-1.12-0.11-2.12 0.7-2.23 1.82z"/>
											<g id="&lt;Group&gt;">
												<path id="&lt;Path&gt;" class="s15" d="m370.55 172.22l-15.93-1.57c-0.33-0.03-0.63 0.21-0.66 0.55l-0.58 5.93c-0.04 0.33 0.21 0.63 0.54 0.66l13.7 1.35c0.33 0.03 0.57 0.33 0.54 0.66l-1.2 12.17c-0.03 0.33-0.33 0.58-0.66 0.54l-0.33-0.03c-0.43-0.04-0.76 0.36-0.64 0.78l1.93 6.53c0.07 0.23 0.28 0.41 0.53 0.43 0.33 0.03 0.63-0.21 0.66-0.54l2-20.26 0.64-6.53c0.03-0.34-0.21-0.63-0.54-0.67z"/>
											</g>
											<path id="&lt;Path&gt;" class="s21" d="m352.97 250.97l1.39-3.28-2.12-0.21z"/>
											<path id="&lt;Path&gt;" class="s21" d="m360.88 230.22l-11.61-1.15c-0.36-0.03-0.67 0.23-0.71 0.59l-0.31 3.38c-0.04 0.35 0.22 0.67 0.58 0.7l11.61 1.15c0.36 0.03 0.67-0.23 0.71-0.59l0.31-3.37c0.04-0.36-0.22-0.68-0.58-0.71z"/>
										</g>
										<g id="&lt;Group&gt;">
											<path id="&lt;Path&gt;" class="s22" d="m334.14 182.65l-12.47 3.28 13.92 53.23q0.27 1.04 0.98 1.85l8.31 9.54c0.22 0.25 0.63 0.15 0.7-0.18l2.54-12.4q0.21-1.05-0.06-2.09z"/>
											<path id="&lt;Path&gt;" class="s23" d="m344.88 250.55c0.22 0.25 0.63 0.15 0.7-0.18l0.96-4.7-4.81 1.26z"/>
											<g id="&lt;Group&gt;">
												<path id="&lt;Path&gt;" class="s14" d="m329.98 183.75l-4.16 1.09 13.96 53.35c0.3 1.15 1.48 1.84 2.63 1.53 1.14-0.3 1.83-1.47 1.53-2.62z"/>
											</g>
											<g id="&lt;Group&gt;">
												<path id="&lt;Path&gt;" class="s24" d="m334.14 182.65l-4.16 1.1 13.96 53.35c0.3 1.15 1.48 1.83 2.62 1.53 1.15-0.3 1.84-1.48 1.54-2.63z"/>
												<path id="&lt;Path&gt;" class="s24" d="m325.82 184.84l-4.15 1.09 13.95 53.35c0.3 1.15 1.48 1.84 2.63 1.54 1.14-0.31 1.83-1.48 1.53-2.63z"/>
											</g>
											<path id="&lt;Path&gt;" class="s25" d="m325.47 166.57l-4.16 1.09c-2.3 0.61-3.67 2.96-3.07 5.26l2.94 11.15 12.47-3.28-2.93-11.15c-0.6-2.3-2.96-3.67-5.25-3.07z"/>
											<path id="&lt;Path&gt;" class="s23" d="m320.53 181.61l1.39 5.3 12.48-3.28-1.39-5.3z"/>
										</g>
									</g>
									<path id="&lt;Path&gt;" class="s26" d="m306.34 304.5c0 4.04 3.27 7.31 7.31 7.31h53.17c4.04 0 7.32-3.27 7.32-7.31v-90.37h-67.8z"/>
									<path id="&lt;Path&gt;" class="s27" d="m340.82 311.81h26c4.04 0 7.32-3.27 7.32-7.31v-90.37h-33.32z"/>
									<path id="&lt;Path&gt;" class="s27" d="m360.64 311.81h6.18c4.04 0 7.32-3.27 7.32-7.31v-90.37h-13.5z"/>
								</g>
								<path id="&lt;Path&gt;" class="s14" d="m374.13 212.45h-67.84c-0.69 0-1.25 0.56-1.25 1.25v4.92c0 0.69 0.56 1.25 1.25 1.25h67.84c0.69 0 1.25-0.56 1.25-1.25v-4.92c0-0.69-0.56-1.25-1.25-1.25z"/>
							</g>
							<g id="&lt;Group&gt;">
								<path id="&lt;Path&gt;" class="s28" d="m163.6 244.55l-12.67 60.23h101.02l-12.67-60.23z"/>
								<path id="&lt;Path&gt;" class="s29" d="m312.61 76.5h-222.34c-5.48 0-9.93 4.45-9.93 9.93v164.63c0 5.48 4.45 9.93 9.93 9.93h222.34c5.48 0 9.93-4.45 9.93-9.93v-164.63c0-5.48-4.45-9.93-9.93-9.93z"/>
								<path id="&lt;Path&gt;" class="s14" d="m80.34 251.06c0 5.48 4.45 9.93 9.93 9.93h222.34c5.48 0 9.93-4.45 9.93-9.93v-17.51h-242.2z"/>
								<path id="&lt;Path&gt;" class="s30" d="m316.87 89.75v134.34h-230.85v-134.34z"/>
								<path id="&lt;Path&gt;" class="s31" d="m316.87 224.09v-134.34h-230.85z"/>
								<path id="&lt;Path&gt;" class="s14" d="m263.72 297.66h-124.56c-4.36 0-7.9 3.53-7.9 7.89 0 4.36 3.54 7.9 7.9 7.9h124.56c4.36 0 7.9-3.54 7.9-7.9 0-4.36-3.54-7.89-7.9-7.89z"/>
							</g>
							<g id="&lt;Group&gt;">
								<g id="&lt;Group&gt;">
									<path id="&lt;Path&gt;" class="s32" d="m137.74 179.88h-58.92c-3.35 0-6.07 2.71-6.07 6.07v121.53c0 3.35 2.72 6.06 6.07 6.06h58.92c3.35 0 6.07-2.71 6.07-6.06v-121.53c0-3.36-2.72-6.07-6.07-6.07z"/>
									<path id="&lt;Path&gt;" class="s33" d="m140.12 187.93v109.81h-63.68v-109.81z"/>
									<path id="&lt;Path&gt;" class="s31" d="m140.12 297.74v-109.81h-63.68z"/>
								</g>
								<path id="&lt;Path&gt;" class="s14" d="m108.28 276.04c-16.22 0-29.33-13.11-29.33-29.33 0-16.22 13.11-29.33 29.33-29.33 16.22 0 29.33 13.11 29.33 29.33 0 16.22-13.11 29.33-29.33 29.33z"/>
								<g id="&lt;Group&gt;">
									<path id="&lt;Path&gt;" class="s34" d="m93.28 230.91l0.05 32.55 24.02-0.23 5.93-3.7v-33.5h-25.13c-2.69 0-4.87 2.18-4.87 4.88z"/>
									<path id="&lt;Path&gt;" class="s35" d="m93.28 230.91l0.05 32.55 5.05-0.05v-37.38h-0.23c-2.69 0-4.87 2.18-4.87 4.88z"/>
									<path id="&lt;Path&gt;" class="s36" d="m93.33 263.46c0 2.17 1.76 3.93 3.93 3.93h26.02v-0.52c-1.73-0.17-3.09-1.63-3.09-3.41 0-1.78 1.36-3.24 3.09-3.41v-0.52h-26.02c-2.17 0-3.93 1.76-3.93 3.93z"/>
									<path id="&lt;Path&gt;" class="s37" d="m93.83 263.46c0 1.89 1.54 3.43 3.43 3.43h26.02v-0.02c-1.73-0.17-3.09-1.63-3.09-3.41 0-1.78 1.36-3.24 3.09-3.41v-0.02h-26.02c-1.89 0-3.43 1.54-3.43 3.43z"/>
								</g>
							</g>
							<g id="&lt;Group&gt;">
								<g id="&lt;Group&gt;">
									<path id="&lt;Path&gt;" class="s12" d="m143.26 306.01c0 3.3 2.67 5.98 5.98 5.98h39.6v-0.79c-2.64-0.26-4.71-2.49-4.71-5.19 0-2.71 2.07-4.94 4.71-5.2v-0.79h-39.6c-3.31 0-5.98 2.68-5.98 5.99z"/>
									<path id="&lt;Path&gt;" class="s37" d="m144.02 306.01c0 2.87 2.34 5.22 5.22 5.22h39.6v-0.03c-2.64-0.26-4.71-2.49-4.71-5.19 0-2.71 2.07-4.94 4.71-5.2v-0.03h-39.6c-2.88 0-5.22 2.35-5.22 5.23z"/>
								</g>
								<g id="&lt;Group&gt;">
									<g id="&lt;Group&gt;">
										<path id="&lt;Path&gt;" class="s38" d="m146.45 294.18c0 3.3 2.68 5.98 5.99 5.98h39.59v-0.79c-2.63-0.26-4.7-2.49-4.7-5.19 0-2.71 2.07-4.94 4.7-5.2v-0.79h-39.59c-3.31 0-5.99 2.68-5.99 5.99z"/>
									</g>
									<path id="&lt;Path&gt;" class="s37" d="m147.22 294.18c0 2.88 2.34 5.22 5.22 5.22h39.59v-0.03c-2.63-0.26-4.7-2.49-4.7-5.19 0-2.71 2.07-4.94 4.7-5.2v-0.02h-39.59c-2.88 0-5.22 2.34-5.22 5.22z"/>
								</g>
								<g id="&lt;Group&gt;">
									<g id="&lt;Group&gt;">
										<path id="&lt;Path&gt;" class="s39" d="m151.48 282.35c0 3.31 2.68 5.98 5.98 5.98h39.6v-0.78c-2.64-0.26-4.71-2.49-4.71-5.2 0-2.71 2.07-4.94 4.71-5.19v-0.79h-39.6c-3.3 0-5.98 2.68-5.98 5.98z"/>
									</g>
									<path id="&lt;Path&gt;" class="s37" d="m152.24 282.35c0 2.88 2.34 5.22 5.22 5.22h39.6v-0.02c-2.64-0.26-4.71-2.49-4.71-5.2 0-2.71 2.07-4.94 4.71-5.19v-0.03h-39.6c-2.88 0-5.22 2.34-5.22 5.22z"/>
								</g>
								<g id="&lt;Group&gt;">
									<g id="&lt;Group&gt;">
										<path id="&lt;Path&gt;" class="s40" d="m146.15 270.52c0 3.31 2.68 5.99 5.98 5.99h39.6v-0.79c-2.64-0.26-4.71-2.49-4.71-5.2 0-2.7 2.07-4.93 4.71-5.19v-0.79h-39.6c-3.3 0-5.98 2.68-5.98 5.98z"/>
									</g>
									<path id="&lt;Path&gt;" class="s37" d="m146.91 270.52c0 2.88 2.34 5.22 5.22 5.22h39.6v-0.02c-2.64-0.26-4.71-2.49-4.71-5.2 0-2.7 2.07-4.93 4.71-5.19v-0.03h-39.6c-2.88 0-5.22 2.34-5.22 5.22z"/>
								</g>
							</g>
							<g id="&lt;Group&gt;">
								<path id="&lt;Path&gt;" class="s41" d="m258.17 174.2c-0.53 1.45-2.63 9.24 0.45 10.03 3.07 0.79 4.5 0.89 8.8-1.36 4.3-2.24 9.98-30.81 9.98-30.81 0 0-6.2 0.83-10.11 4.28-3.92 3.46-8.6 16.41-9.12 17.86z"/>
								<g id="&lt;Group&gt;">
									<path id="&lt;Path&gt;" class="s42" d="m280.34 310.57c0.1-1.83-0.97-6.72-0.97-6.72l-6.77-0.01c0 0-11.13 4.59-13.16 5.25-2.04 0.66-2.36 2.49-2.5 3.57-0.13 1.09 8.19 2.19 9.77 1.87 1.59-0.31 3.59-1.62 3.97-1.53 0.38 0.08 0.81 1.13 0.81 1.13 0 0 8.08 0.04 8.64-0.21 0.55-0.25 0.11-1.52 0.21-3.35z"/>
									<path id="&lt;Path&gt;" class="s42" d="m298.5 312.44c0.1-1.83-0.97-6.71-0.97-6.71l-6.77-0.01c0 0-11.13 4.58-13.16 5.24-2.04 0.67-2.36 2.49-2.5 3.58-0.13 1.08 8.19 2.18 9.77 1.87 1.59-0.32 3.59-1.62 3.97-1.54 0.38 0.08 0.81 1.13 0.81 1.13 0 0 8.08 0.04 8.64-0.21 0.55-0.25 0.11-1.51 0.21-3.35z"/>
									<g id="&lt;Group&gt;">
										<path id="&lt;Path&gt;" class="s43" d="m294.72 254.72c0.3-6.23 2.6-41.53 2.15-45.81-0.46-4.27-30.13-1.91-30.13-1.91 0 0-5.16 40.36-5.86 50.56-0.71 10.2 8.05 47.49 8.91 47.79 0.86 0.31 10.24-0.08 10.29-1.08 0.04-1-7.08-40.27-6.44-44.48 0.63-4.21 6.58-35.82 6.58-35.82 0 0 1.82 32.51 1.72 34.75-0.11 2.24 3.95 48.25 5.02 48.57 1.08 0.32 10.9 0.04 11.16-0.69 0.25-0.74-3.69-45.65-3.4-51.88z"/>
									</g>
									<path id="&lt;Path&gt;" class="s41" d="m279.92 225.57q0.12-1.06 0.3-1.6c0 0-4.28 1.35-5.17 5.81-0.88 4.46-3.01 23.72-4.43 26.56-1.41 2.84-5.84 3.85-4.78 5.48 1.06 1.62 3.01 0.61 4.43 6.48 1.42 5.88 6.02 27.78 5.31 31.23-0.41 2.02-2.35 4.18-3.38 5.91 3.05-0.06 7.84-0.46 7.88-1.17 0.04-1-7.08-40.27-6.44-44.48 0.55-3.64 5.07-27.78 6.28-34.22z"/>
									<path id="&lt;Path&gt;" class="s27" d="m294.72 254.72c0.3-6.23 2.6-41.53 2.15-45.81-0.46-4.27-30.13-1.91-30.13-1.91 0 0-0.45 3.52-1.1 8.73 2.25 1.79 5.21 3.51 8.35 3.51 6.56 0 15.24-2.43 16.48 4.26 1.24 6.69-1.95 28.99-0.89 38.32 1.07 9.32 4.61 35.88 4.26 40.35-0.24 3.01-3.47 3.99-4.23 5.25 3.27-0.01 8.33-0.3 8.51-0.82 0.25-0.74-3.69-45.65-3.4-51.88z"/>
								</g>
								<path id="&lt;Path&gt;" class="s34" d="m288.38 151.23c-4.62-1.1-9.16 0.06-12.65 1.59-3.81 1.66-6.47 5.22-6.98 9.35-0.29 2.32-0.72 5.34-1.34 9.04-1.6 9.54-1.97 38.53-1.97 38.53 0 0-0.14 2.84 12.54 4.25 12.68 1.4 20.64-2.25 20.64-2.25 0 0-0.26-21.81 1.02-33.75 1.7-15.93-1.55-24.46-11.26-26.76z"/>
								<path id="&lt;Path&gt;" class="s44" d="m285.42 151.23c-2.85-0.31-5.4 0.26-7.59 1.29 0 0-2.58 1.37-2.79 3.16-0.21 1.79 1.24 3.07 3.99 3.14 2.75 0.07 4.62 0.19 6.71-1.15 2.1-1.35 3.54-4.1 3.33-4.9-0.21-0.79-0.81-1.24-3.65-1.54z"/>
								<path id="&lt;Path&gt;" class="s45" d="m265.55 161.7c-1.81-0.02-3.62 0.96-4.11 2.73-0.49 1.77-1.92 5.61-1.92 5.61 0 0 4.17 1.47 4.43 1.39 0.27-0.09 0.83-2.86 0.93-3.27 0.11-0.41 0.51-0.43 1.82-0.92 1.31-0.48 1.15-1.81 1.15-1.81 0 0 1.45 0.71 2.23 0.33 0.78-0.38-2.73-4.04-4.53-4.06z"/>
								<g id="&lt;Group&gt;">
									<path id="&lt;Path&gt;" class="s46" d="m259.83 168.61c0 0-2.88 2.96-3.88 7.99-1 5.04 1.89 9.1 5.61 7.84 3.73-1.26 4.14-13.28 3.52-13.82-0.62-0.55-5.25-2.01-5.25-2.01z"/>
								</g>
								<path id="&lt;Path&gt;" class="s42" d="m269.5 161.2c-0.12-0.57-0.69-0.94-1.27-0.81l-4.93 1.07c-0.58 0.13-0.94 0.69-0.82 1.27l2.31 10.56c0.12 0.57 0.69 0.94 1.26 0.81l4.94-1.07c0.57-0.13 0.94-0.69 0.81-1.27z"/>
								<path id="&lt;Path&gt;" class="s45" d="m273.26 171.06c-0.97-1.79-1.36-5.82-2.21-5.63-0.84 0.2 0.04 3.92-0.38 4.16-0.41 0.24-2.51-0.41-4.01-1.53-1.5-1.12-3.06-3.3-3.21-2.29-0.13 0.87 1.31 2.67 1.68 3.13q0.09 0.1 0.09 0.1 0 0-0.09-0.1c-0.31-0.38-1.42-1.61-1.68-0.92-0.31 0.8 1.38 2.62 1.38 2.62 0 0-1.66-1.39-1.61-0.61 0.05 0.78 1.29 2.34 1.29 2.34 0 0-0.99-0.94-0.94-0.23 0.04 0.71 0.76 1.95 3.03 2.87 2.26 0.93 4.57 0.28 5.98 1.05 1.4 0.77 2.53 1.69 2.73 1.61 0.21-0.09 1.63-3.59 1.63-3.59 0 0-2.71-1.19-3.68-2.98z"/>
								<path id="&lt;Path&gt;" class="s45" d="m265.13 168.9q0.09 0.1 0.09 0.1 0 0-0.09-0.1z"/>
								<g id="&lt;Group&gt;">
									<path id="&lt;Path&gt;" class="s47" d="m288.08 151.14c-2.42 1.09 1.18 4.69 2.6 11.91 1.1 5.58 3.04 13.63 0.27 14.12-2.77 0.48-14.83-4.79-14.83-4.79l-2.99 5.6c0 0 19.4 11.98 23.35 10.49 3.94-1.49 5.87-19.29 4.54-26.54-1.82-9.88-12.94-10.79-12.94-10.79z"/>
								</g>
								<path id="&lt;Path&gt;" class="s27" d="m288.08 151.14q-0.6 0.28-0.74 0.78c2.88 1.12 8.11 3.51 9.4 6.57 1.8 4.27 1.8 13.93 1.35 19.78-0.45 5.84-3.15 6.51-9.22 4.72-4.78-1.42-12.11-4.92-15.03-6.34l-0.71 1.33c0 0 19.4 11.98 23.35 10.49 3.94-1.49 5.87-19.29 4.54-26.54-1.82-9.88-12.94-10.79-12.94-10.79z"/>
								<path id="&lt;Path&gt;" class="s48" d="m283.82 144.05l-4.02 4.07c0 0 0.5 2.56-0.43 3.98-0.93 1.41-4.13 2.63-3.23 4.27 0.89 1.63 6.8 2.17 8.95 0.45 2.15-1.72 4.22-3.43 3.22-4.5-2.81-3-4.49-8.27-4.49-8.27z"/>
								<path id="&lt;Path&gt;" class="s49" d="m284.82 144.13l-5.02 3.99c0 0 0.5 2.56-0.43 3.98-0.45 0.68-1.44 1.32-2.23 1.99 0.95 0.46 2.27 0.8 3.95 0.49 2.8-0.52 3.53 0.53 4.18 2.09 2.03-1.65 3.9-3.09 3.19-4.32-2.34-4.08-3.64-8.22-3.64-8.22z"/>
								<path id="&lt;Path&gt;" class="s45" d="m274.52 129.65c-4.9 1.32-6.2 5.04-6.31 7.68 0 0 0.08 3.64 1.06 4.86 0.98 1.23 1.65 2.2 1.95 3.53 0.3 1.32 1.94 6.12 6.26 8.18 4.32 2.06 7.72-4.93 8.72-7.73 1.01-2.8 0.52-9.74-1.07-12.91-1.59-3.16-5.7-4.93-10.61-3.61z"/>
								<path id="&lt;Path&gt;" class="s48" d="m274.52 129.65c-4.9 1.32-6.2 5.04-6.31 7.68 0 0 0.03 1.33 0.27 2.65 2.57-0.84 6.77-1.92 8.1-0.56 1.96 2.01 1.76 4.39 2.9 4.87 1.14 0.49 2.81 1.17 3.09 3.25 0.24 1.8-0.5 5.32-4.31 6.64 3.95 0.94 7-5.38 7.94-8.01 1.01-2.8 0.52-9.74-1.07-12.91-1.59-3.16-5.7-4.93-10.61-3.61z"/>
								<path id="&lt;Path&gt;" class="s42" d="m285.47 129.49c0 0-2.03-4.91-6.99-4.52-4.96 0.39-10.92 5.11-13.09 4.97-2.17-0.14-4.12-0.7-3.68 0.7 0.44 1.39 1.51 1.77 1.29 2.19-0.22 0.42-2.21-0.25-1.16 1.2 1.05 1.44 2.11 1.81 2.11 1.81 0 0-0.72 0.7-0.45 1.56 0.27 0.86 0.54 1.72 3.26 1.33 2.71-0.38 4.75-0.68 9.38-2.85 0 0 1.5 2.48 3.63 2.87 2.14 0.39 2.09 3.24 2.67 2.46 0.59-0.77 0.36-4.49 2.02-3.36 1.65 1.13 1.07 4.51 0.45 5.18 0 0 1.36 2.05 2.52 1.21 1.15-0.83 1.49-6.85 0.89-9.86-0.6-3-2.85-4.89-2.85-4.89z"/>
							</g>
							<g id="&lt;Group&gt;">
								<path id="&lt;Path&gt;" class="s42" d="m238.36 304.25c-4.78-0.71-5.5-0.21-6.18-2.09-0.69-1.88-9.21-0.57-9.21-0.57 0 0-0.86 3.09-1 5.73-0.13 2.65 0.32 3.48 0.32 3.48 0 0 7.01 1.17 13.96 0.43 6.95-0.73 8.67-0.61 8.86-1.25 0.2-0.64 0.34-1.63-0.1-2.15-0.44-0.51-1.88-2.88-6.65-3.58z"/>
								<g id="&lt;Group&gt;">
									<path id="&lt;Path&gt;" class="s50" d="m192.12 211.43c-4.69 0.18-5.82 2.44-6.01 7.5-0.19 5.07 1.09 13.85 1.09 13.85l10.17-1.08c0 0 0-7.51-0.75-13.33-0.75-5.82-4.5-6.94-4.5-6.94z"/>
								</g>
								<g id="&lt;Group&gt;">
									<path id="&lt;Path&gt;" class="s51" d="m191.43 249.4c-5.84-1.41-15.93-1.21-19.35 7.46-3.43 8.67 5.84 9.48 10.28 10.69 4.44 1.21 27.83 1.21 29.84 1.41 2.02 0.2 2.94 8.05 4.75 12.68 1.82 4.64 5.32 22.14 5.32 22.14l10.3-1.15c0.8-3.63-4.04-45.17-7.26-47.99-3.23-2.82-33.88-5.24-33.88-5.24z"/>
								</g>
								<path id="&lt;Path&gt;" class="s27" d="m191.43 249.4c-3.03-0.73-7.21-1.03-11 0.07 1.73 0.73 4.66 1.18 10.4 0.94 0 0 24.19 1.61 27.42 4.03 3.23 2.42 5.83 7.27 6.43 13.52 0.49 5.02 4.12 28.97 4.65 34.98l3.24-0.31c0.8-3.63-1.62-42.75-7.26-47.99-6.48-6.02-33.88-5.24-33.88-5.24z"/>
								<path id="&lt;Path&gt;" class="s42" d="m209.08 310.6c-4.67-1.23-5.85-1.44-6.33-3.39-0.48-1.95-9.09-1.59-9.09-1.59 0 0-1.19 2.98-1.62 5.6-0.42 2.61-0.07 3.49-0.07 3.49 0 0 6.84 1.93 13.83 1.97 6.99 0.04 8.69-0.33 8.95-0.94 0.27-0.62 0.54-1.1 0.16-1.66-0.38-0.56-1.16-2.26-5.83-3.48z"/>
								<g id="&lt;Group&gt;">
									<path id="&lt;Path&gt;" class="s52" d="m170.45 250.91c-1.91 0-3.67 0.94-4.76 2.51-2.09 3.03-4.49 8.09 0.06 11.13 6.81 4.54 34.07 3.24 34.39 4.86 0.33 1.63-7.52 37.82-7.52 37.82 0 0 8.17 1.45 10.12 0.8 1.95-0.65 14.93-42.18 12.98-49.97-1.66-6.63-35.31-7.15-45.27-7.15z"/>
								</g>
								<path id="&lt;Path&gt;" class="s27" d="m215.47 257.45q-0.07-0.1-0.15-0.2-0.12-0.19-0.28-0.37-0.12-0.12-0.25-0.23-0.16-0.16-0.35-0.31-0.16-0.12-0.34-0.23-0.2-0.14-0.42-0.28-0.2-0.11-0.41-0.21-0.24-0.13-0.49-0.26-0.24-0.1-0.48-0.2-0.28-0.12-0.57-0.24-0.26-0.1-0.54-0.19-0.31-0.12-0.63-0.22-0.3-0.1-0.61-0.19-0.33-0.1-0.68-0.2-0.33-0.08-0.68-0.17-0.35-0.09-0.71-0.18-0.37-0.08-0.74-0.16-0.37-0.09-0.76-0.17-0.38-0.07-0.77-0.15-0.4-0.08-0.81-0.15-0.4-0.07-0.81-0.14-0.41-0.07-0.84-0.14-0.42-0.06-0.86-0.13-0.42-0.06-0.86-0.12-0.43-0.06-0.87-0.12-0.45-0.06-0.91-0.11-0.44-0.06-0.88-0.11-0.46-0.05-0.93-0.1-0.45-0.05-0.91-0.1-0.47-0.05-0.95-0.09-0.46-0.05-0.92-0.09-0.47-0.04-0.94-0.08-0.48-0.04-0.96-0.08-0.47-0.04-0.93-0.07-0.48-0.04-0.95-0.07-0.47-0.03-0.94-0.06-0.48-0.04-0.96-0.06-0.46-0.03-0.93-0.06-0.46-0.03-0.93-0.05-0.47-0.03-0.94-0.05-0.46-0.03-0.91-0.05-0.46-0.02-0.92-0.04-0.46-0.02-0.92-0.04-0.44-0.02-0.87-0.03-0.46-0.02-0.9-0.04-0.43-0.01-0.85-0.02-0.44-0.02-0.87-0.03-0.42-0.01-0.83-0.03-0.41-0.01-0.81-0.02-0.41-0.01-0.81-0.02-0.39 0-0.77-0.01-0.39-0.01-0.76-0.02-0.37 0-0.73-0.01-0.37-0.01-0.73-0.01-0.34-0.01-0.67-0.01-0.34 0-0.67-0.01-0.31 0-0.6 0-0.33 0-0.65-0.01-0.28 0-0.55 0-0.27 0-0.52 0-0.28 0-0.55 0-0.12 0-0.24 0c-1.75 0-3.36 0.79-4.45 2.13 0.53 1.92 1.24 2.48 7.25 3.98 9.33 2.34 25.03 3.68 28.83 3.81 3.81 0.12 6.89 2.17 7.62 7.08 0.74 4.91-2.57 19.02-3.8 23.56-1.23 4.54-4.03 12.23-8.45 13.58-1.83 0.56-3.4 0.76-4.51 0.74-0.2 0.91-0.32 1.44-0.32 1.44 0 0 0.85 0.15 2.07 0.33q0.61 0.09 1.31 0.19 0.11 0.01 0.22 0.03 0.73 0.1 1.5 0.18 0.09 0.01 0.18 0.02c2 0.22 4 0.33 4.84 0.05 1.34-0.45 7.89-20.22 11.22-35.06q0.23-1.02 0.44-1.99c0.68-3.26 1.19-6.21 1.4-8.57 0.17-1.88 0.16-3.38-0.08-4.35q-0.08-0.31-0.25-0.61z"/>
								<path id="&lt;Path&gt;" class="s34" d="m194.19 213.25c-2.39-5.74-6.38-6.86-12.92-7.5 0 0-7.33 0.16-11.96 5.58-4.62 5.43-8.61 31.9-8.61 37.16 0 5.27-0.41 12.7 4.38 14.46 4.78 1.75-1.66-7.93 27.82-14.93 0 0-4.26-8.85-2.15-17.04 1.71-6.64 5.84-11.99 3.44-17.73z"/>
								<path id="&lt;Path&gt;" class="s53" d="m188.57 203.08c-0.44-0.36-5.66-2.13-5.66-2.13 0 0-0.98 4.41-2.22 6.07-1.15 1.54-2.6 2.97-0.77 4.72 1.82 1.75 7.26 3.68 8.07 2.07 0.8-1.6-1.1-3.06-1.17-5.55-0.07-2.48 2.19-4.81 1.75-5.18z"/>
								<path id="&lt;Path&gt;" class="s45" d="m196.59 190.9c-4.29-2.16-8.44-1.31-10.52 1.31-2.09 2.63-3.87 8.97-3.48 11.75 0.39 2.79 2.2 9.92 6.6 8.85 4.4-1.08 6.84-5.22 7.37-6.38 0.54-1.17 1.34-1.95 2.48-2.89 1.14-0.95 1.93-4.31 1.93-4.31 0.4-2.46-0.09-6.16-4.38-8.33z"/>
								<path id="&lt;Path&gt;" class="s48" d="m196.59 190.9c-4.29-2.16-8.44-1.31-10.52 1.31-2.09 2.63-3.87 8.97-3.48 11.75 0.37 2.62 1.98 9.07 5.82 8.95-3.28-1.95-3.28-5.35-2.71-6.97 0.66-1.88 2.33-2.19 3.48-2.42 1.15-0.23 1.42-2.47 3.62-3.95 1.5-1.01 5.19 0.8 7.4 2.07 0.48-1.18 0.77-2.41 0.77-2.41 0.4-2.46-0.09-6.16-4.38-8.33z"/>
								<path id="&lt;Path&gt;" class="s42" d="m199.9 189.54c-1.97-1.59-4.25-3.27-6.78-2.98q0-0.92 0-1.85c-0.72 0.11-1.38 0.51-1.82 1.08-0.52-0.66-1.25-1.15-2.05-1.4q0.36 0.86 0.72 1.73c-1.92-0.52-2.99 0.66-4.18 1.88-1.12 1.15-2.21 2-2.88 3.56-1.19 2.81-2.08 8.75-1.12 9.8 0.96 1.05 2.7-0.67 2.7-0.67-0.47-0.78-0.35-4.2 1.49-4.96 1.85-0.77 0.88 2.81 1.29 3.68 0.41 0.88 0.94-1.92 3.1-1.86 2.16 0.05 4.13-2.07 4.13-2.07 0.12-0.13 2.83 2.28 3.06 2.45 1.16 0.83 2.51 1.49 3.98 1.39 1.2-0.09 2.31-0.67 3.37-1.24q-0.95-1.07-1.62-2.35c1.69-0.05 3.22-1.49 3.38-3.17-2.52 0.26-4.79-1.43-6.77-3.02z"/>
								<path id="&lt;Path&gt;" class="s54" d="m173.68 253.59l21.12 3.21 23.32-7.22 0.21-1.39-44.65 4.3z"/>
								<path id="&lt;Path&gt;" class="s55" d="m173.68 252.49l21.05 2.87c0 0 22.97-6.81 23.44-6.81 0.48 0-20.09-2.12-20.09-2.12z"/>
								<path id="&lt;Path&gt;" class="s54" d="m180.83 252.11l13.8 1.88c7.81-2.32 13-3.85 16.47-4.85-3.98-0.42-8.95-0.93-12.92-1.34z"/>
								<path id="&lt;Path&gt;" class="s45" d="m203.69 242.61c-1.57-0.3-5.97-5.08-6.42-6.05-0.45-0.97-0.37-4.82-0.37-4.82l-6.15 0.59c0 0 0.05 5.73 0.57 7.67 0.52 1.94 8.94 4.4 9.83 4.7 0.9 0.3 0 1.64 0.82 2.24 0.82 0.59 0.97-0.97 1.35-1.5 0.37-0.52 1.12 1.42 1.86 2.24 0.75 0.83 2.77 0.53 3.59 0 0.82-0.52 0.44-2.53-0.15-3.58-0.6-1.04-3.36-1.19-4.93-1.49z"/>
								<path id="&lt;Path&gt;" class="s48" d="m195.88 239.29c-2.6-2.03-2.69-5.04-2.31-7.23l-2.82 0.27c0 0 0.05 5.73 0.57 7.67 0.52 1.94 8.94 4.4 9.83 4.7 0.9 0.3 0 1.64 0.82 2.24 0.82 0.59 0.97-0.97 1.35-1.5 0.37-0.52 1.12 1.42 1.86 2.24 0.75 0.83 2.77 0.53 3.59 0 0.6-0.38 0.56-1.57 0.25-2.59-3.96-1.37-10.15-3.48-13.14-5.8z"/>
								<path id="&lt;Path&gt;" class="s45" d="m186.44 242.13c-2.23-0.48-19.61-5.74-20.09-7.18-0.48-1.43 2.39-5.1 2.39-5.1l-7.65-1.91c0 0-3.35 7.01-2.08 10.52 1.28 3.51 12.44 4.79 21.21 5.74l4.31 1.12c0 0 0.95 1.91 3.03 2.39 2.07 0.48 3.58 0.26 4.46 0.96 0.88 0.7 1.91 2.39 2.39 1.91 0.48-0.48 1.6-3.99 1.12-6.06-0.48-2.07-6.86-1.91-9.09-2.39z"/>
								<path id="&lt;Path&gt;" class="s48" d="m187.63 244.78c-0.75-1.5-19.98-5-24.23-6.74-3.22-1.33-1.41-6.97-0.35-9.61l-1.96-0.49c0 0-3.35 7.01-2.08 10.52 1.28 3.51 12.44 4.79 21.21 5.74l4.31 1.12c0 0 0.95 1.91 3.03 2.39 2.07 0.48 3.58 0.26 4.46 0.96 0.88 0.7 1.91 2.39 2.39 1.91 0.3-0.3 0.84-1.77 1.1-3.34-2.29-0.86-7.28-1.27-7.88-2.46z"/>
								<g id="&lt;Group&gt;">
									<path id="&lt;Path&gt;" class="s50" d="m172.89 209.92c-7.82 0.48-13.4 18.34-13.4 18.34l9.73 3.98c0 0 8.29-11 8.29-16.58 0-5.58-4.62-5.74-4.62-5.74z"/>
								</g>
								<path id="&lt;Path&gt;" class="s54" d="m226.27 227.71l-22.42 5.48c-0.75 0.18-1.36 0.73-1.62 1.45l-7.5 20.72 23.6-7.17 8.81-19.22c0.4-0.84-0.16-1.43-0.87-1.26z"/>
								<path id="&lt;Path&gt;" class="s55" d="m226.73 228.23l-22.43 5.48c-0.74 0.18-1.35 0.72-1.61 1.44l-7.5 20.73 23.6-7.18 8.41-19.92c0.13-0.31-0.15-0.63-0.47-0.55z"/>
							</g>
						</g>
						<path id="&lt;Path&gt;" class="s56" d="m381.82 309.94h-367.57c-1.87 0-3.39 1.52-3.39 3.39v4.86c0 1.87 1.52 3.39 3.39 3.39h367.57c1.87 0 3.38-1.52 3.38-3.39v-4.86c0-1.87-1.51-3.39-3.38-3.39z"/>
					</g>
				</g>
			</g>
		</g>
	</g>
	<g id="Layer 1">
	</g>
</svg>