<svg version="1.2" xmlns="http://www.w3.org/2000/svg" viewBox="0 0 600 350" width="600" height="350">
	<title>New Project</title>
	<defs>
		<linearGradient id="g1" x2="1" gradientUnits="userSpaceOnUse" gradientTransform="matrix(232.4,0,0,26.369,367.6,300.693)">
			<stop offset="0" stop-color="#0093aa"/>
			<stop offset="1" stop-color="#00bfdc"/>
		</linearGradient>
		<linearGradient id="g2" x2="1" gradientUnits="userSpaceOnUse" gradientTransform="matrix(491.565,0,0,26.369,80.953,273.492)">
			<stop offset="0" stop-color="#0093aa"/>
			<stop offset="1" stop-color="#00bfdc"/>
		</linearGradient>
		<linearGradient id="g3" x2="1" gradientUnits="userSpaceOnUse" gradientTransform="matrix(108.967,0,0,26.229,93.534,312.66)">
			<stop offset="0" stop-color="#0093aa"/>
			<stop offset="1" stop-color="#00bfdc"/>
		</linearGradient>
		<linearGradient id="g4" x2="1" gradientUnits="userSpaceOnUse" gradientTransform="matrix(232.4,0,0,26.369,367.6,300.693)">
			<stop offset="0" stop-color="#0093aa"/>
			<stop offset="1" stop-color="#00bfdc"/>
		</linearGradient>
	</defs>
	<style>
		.s0 { opacity: .5;mix-blend-mode: multiply;fill: url(#g1) } 
		.s1 { opacity: .5;mix-blend-mode: multiply;fill: url(#g2) } 
		.s2 { fill: #e4f0f8 } 
		.s3 { fill: #ffffff } 
		.s4 { fill: #d1e2ea } 
		.s5 { fill: #b3c5cd } 
		.s6 { fill: #77b0e4 } 
		.s7 { fill: #009fda } 
		.s8 { fill: #ff582a } 
		.s9 { fill: #ffd524 } 
		.s10 { fill: #00d6cd } 
		.s11 { fill: #00415c } 
		.s12 { fill: #f6a531 } 
		.s13 { fill: #683d00 } 
		.s14 { opacity: .5;mix-blend-mode: multiply;fill: url(#g3) } 
		.s15 { fill: #0071b8 } 
		.s16 { fill: #ae1e0b } 
		.s17 { fill: #ffc32e } 
		.s18 { fill: #efa200 } 
		.s19 { fill: #0080ba } 
		.s20 { fill: #7af8ee } 
		.s21 { opacity: .5;mix-blend-mode: multiply;fill: url(#g4) } 
		.s22 { fill: #003548 } 
	</style>
	<path id="&lt;Path&gt; copy" class="s0" d="m483.8 327.06c-64.26 0-116.2-5.89-116.2-13.18 0-7.29 51.94-13.19 116.2-13.19 64.26 0 116.2 5.9 116.2 13.19 0 7.29-51.94 13.18-116.2 13.18z"/>
	<g id="&lt;Group&gt;">
		<g id="&lt;Group&gt;">
			<path id="&lt;Path&gt;" class="s1" d="m326.74 299.86c-135.92 0-245.79-5.89-245.79-13.18 0-7.29 109.87-13.19 245.79-13.19 135.91 0 245.78 5.9 245.78 13.19 0 7.29-109.87 13.18-245.78 13.18z"/>
			<g id="&lt;Group&gt;">
				<g id="&lt;Group&gt;">
					<g id="&lt;Group&gt;">
						<path id="&lt;Path&gt;" class="s2" d="m518.35 264.19h-363.45v-208.46c0-10.02 8.12-18.14 18.14-18.14h327.17c10.01 0 18.14 8.12 18.14 18.14z"/>
					</g>
					<g id="&lt;Group&gt;">
						<path id="&lt;Path&gt;" class="s3" d="m497.42 57.96v185.86h-321.59v-185.86z"/>
					</g>
					<g id="&lt;Group&gt;">
						<g id="&lt;Group&gt;">
							<path id="&lt;Path&gt;" class="s4" d="m528.91 286.68h-384.58c-12.42 0-22.49-10.07-22.49-22.49h429.56c0 12.42-10.06 22.49-22.49 22.49z"/>
						</g>
						<g id="&lt;Group&gt;">
							<path id="&lt;Path&gt;" class="s5" d="m367.6 264.19v6.79h-61.95v-6.79z"/>
						</g>
					</g>
					<g id="&lt;Group&gt;">
						<g id="&lt;Group&gt;">
							<g id="&lt;Group&gt;">
								<path id="&lt;Path&gt;" class="s6" d="m497.42 57.96v20.37h-321.59v-20.37z"/>
							</g>
							<g id="&lt;Group&gt;">
								<path id="&lt;Path&gt;" class="s7" d="m479.44 63v10.29h-122.52v-10.29z"/>
							</g>
						</g>
						<g id="&lt;Group&gt;">
							<g id="&lt;Group&gt;">
								<path id="&lt;Path&gt;" class="s8" d="m186.86 73.24c-2.81 0-5.09-2.28-5.09-5.1 0-2.81 2.28-5.09 5.09-5.09 2.82 0 5.09 2.28 5.09 5.09 0 2.82-2.27 5.1-5.09 5.1z"/>
							</g>
							<g id="&lt;Group&gt;">
								<path id="&lt;Path&gt;" class="s9" d="m202.24 73.24c-2.81 0-5.09-2.28-5.09-5.1 0-2.81 2.28-5.09 5.09-5.09 2.82 0 5.1 2.28 5.1 5.09 0 2.82-2.28 5.1-5.1 5.1z"/>
							</g>
							<g id="&lt;Group&gt;">
								<path id="&lt;Path&gt;" class="s10" d="m217.63 73.24c-2.82 0-5.1-2.28-5.1-5.1 0-2.81 2.28-5.09 5.1-5.09 2.81 0 5.09 2.28 5.09 5.09 0 2.82-2.28 5.1-5.09 5.1z"/>
							</g>
						</g>
					</g>
					<g id="&lt;Group&gt;">
						<g id="&lt;Group&gt;">
							<path id="&lt;Path&gt;" class="s2" d="m384.36 93.92v135.35h-190.63v-135.35z"/>
							<g id="&lt;Group&gt;">
								<g id="&lt;Group&gt;">
									<path id="&lt;Path&gt;" class="s10" d="m332.64 106.19c-16.07 0-29.09 13.44-29.09 30.04 0 16.58 13.02 30.03 29.09 30.03 10.07 0 18.94-5.28 24.16-13.3l-24.16-16.73z"/>
								</g>
								<g id="&lt;Group&gt;">
									<path id="&lt;Path&gt;" class="s8" d="m339.3 105.37v25.98l20.88 14.46c2.69-4.14 4.26-9.1 4.26-14.46 0-14.35-11.26-25.98-25.14-25.98z"/>
								</g>
							</g>
							<g id="&lt;Group&gt;">
								<path id="&lt;Path&gt;" class="s2" d="m433.53 93.92v33.58h-33.57v-33.58z"/>
								<path id="&lt;Path&gt;" class="s2" d="m479.52 93.92v33.58h-33.58v-33.58z"/>
							</g>
							<g id="&lt;Group&gt;">
								<path id="&lt;Path&gt;" class="s2" d="m433.53 139.11v33.58h-33.57v-33.58z"/>
								<path id="&lt;Path&gt;" class="s2" d="m479.52 139.11v33.58h-33.58v-33.58z"/>
							</g>
						</g>
						<g id="&lt;Group&gt;">
							<path id="&lt;Path&gt;" class="s2" d="m479.52 181.44v5.09h-79.56v-5.09z"/>
							<path id="&lt;Path&gt;" class="s2" d="m429.89 192.12v5.1h-29.93v-5.1z"/>
							<path id="&lt;Path&gt;" class="s2" d="m479.52 202.81v5.09h-79.56v-5.09z"/>
							<path id="&lt;Path&gt;" class="s2" d="m459.82 213.49v5.09h-59.86v-5.09z"/>
							<path id="&lt;Path&gt;" class="s2" d="m444.75 224.17v5.1h-44.79v-5.1z"/>
						</g>
					</g>
				</g>
				<g id="&lt;Group&gt;">
					<g id="&lt;Group&gt;">
						<g id="&lt;Group&gt;">
							<g id="&lt;Group&gt;">
								<path id="&lt;Path&gt;" class="s3" d="m336.43 182.18c-1.05 1.01-12.09 0.6-12.09 0.6 0 0-46.26 1.98-48.4 0.87-2.14-1.11-8.44-17.98-8.44-17.98l15.45-6.26 3.39 10.68 37.41 4.12 1.44-0.93c0 0 2.26-2.94 3.46-3.73 1.21-0.79 8.52-2.16 9.03-2.19 0 0 2.65 2.64 2.94 3.74 0.29 1.1 0.14 3.65-0.01 3.94-0.16 0.28-2.13 2.52-2.13 2.52 0 0-0.41 3.04-2.05 4.62z"/>
							</g>
							<g id="&lt;Group&gt;">
								<path id="&lt;Path&gt;" class="s11" d="m330.4 178.42c-0.73-0.59-0.87-1.65-0.31-2.41l45.61-61.2 1.92 1.02-44.71 62.24c-0.58 0.82-1.73 0.97-2.51 0.35z"/>
							</g>
							<g id="&lt;Group&gt;">
								<path id="&lt;Path&gt;" class="s3" d="m332.25 169.44c0 0 8.03 1.83 7.41 3.04-0.61 1.21-2.97 2.35-3.6 2.21-0.62-0.13-3.61-0.31-3.61-0.31 0 0-1.81 4.88-3.8 5-1.99 0.12-3.35-2.43-3.35-2.43l5.3-6.49z"/>
							</g>
						</g>
						<g id="&lt;Group&gt;">
							<path id="&lt;Path&gt;" class="s12" d="m265.18 122.02c0 0 15.14 19.22 14.74 26.89-1.01 19.23-2.17 51.76-2.17 51.76 0 0 7.8 18.2 10.4 28.6h-63.67c0 0 8.2-29.9 8.42-31.85 0.22-1.95-8.42-42.42-8.42-42.42l2.81-29.68c0 0 5.65-3.02 11.91-4.08 4.65-0.8 10.05 0.73 13.35 2.44 0 0 1.15-3.14 12.63-1.66z"/>
						</g>
						<g id="&lt;Group&gt;">
							<g id="&lt;Group&gt;">
								<g id="&lt;Group&gt;">
									<path id="&lt;Path&gt;" class="s13" d="m254.74 121.18l4.3 1.33 4.12 11.86-8.92-3.68-7.86 5.54-7.18-14.99 2.52-2.11z"/>
								</g>
							</g>
							<g id="&lt;Group&gt;">
								<g id="&lt;Group&gt;">
									<path id="&lt;Path&gt;" class="s3" d="m243.55 113.41c8.24 11.42 20.28 6.88 20.28 6.88 7.61-8.83 4.47-24.51 2.13-32.53q-0.03-0.1-0.06-0.2-0.91-2.42-2.73-4.51l-26.72 7.48c1.05 11.11 3.77 18.3 7.1 22.88z"/>
								</g>
								<g id="&lt;Group&gt;">
									<path id="&lt;Path&gt;" class="s3" d="m255.14 115.86l-0.96 12.94-12.46-7.62v-14.1z"/>
								</g>
							</g>
						</g>
						<g id="&lt;Group&gt;">
							<path id="&lt;Path&gt;" class="s3" d="m285.39 220.15c0.1-0.45 2.13-3.34 1.74-4.36-0.39-1.01-1.69-1.73-1.69-1.73 0 0 2.86 0.87 3.14 0.7 0.27-0.17 0.7-1.91 0.49-2.44-0.2-0.54-12.79-4.31-12.79-4.31 0 0 4.1 0.34 4.27-0.27 0.17-0.61 0.42-2.62-0.07-2.84-0.49-0.22-8.02-2.38-9.52-2.21-1.51 0.17-5.02 1.86-5.02 1.86l-1.79 0.2-33.23-21.56 1.86-11.65-17.48-1.42c0 0-2.06 18.84-0.57 20.9 1.49 2.06 45.92 22.06 45.92 22.06 0 0 11.02 6.2 12.46 6.74 1.44 0.54 12.18 0.78 12.28 0.33z"/>
						</g>
						<g id="&lt;Group&gt;">
							<path id="&lt;Path&gt;" class="s12" d="m227.29 125.32c0 0-6.52 7.15-7.82 10.91-1.3 3.77-6.5 28.04-6.94 33.67l32.07 2.6c0 0 0.87-21.79 0.87-24.33 0-2.54-18.18-22.85-18.18-22.85z"/>
						</g>
						<path id="&lt;Path&gt;" class="s12" d="m265.18 122.02c0 0 3.33 0.72 3.98 1.59 0.65 0.86 14.73 29.03 16.25 39.79l-13.08 2.1-2.16-26.51-4.99-12.78z"/>
					</g>
					<g id="&lt;Group&gt;">
						<path id="&lt;Path&gt;" class="s11" d="m267.59 94.06c-4.04-1.32-7.99-3.73-10.2-7.36-2.26 8.95-15.75 21.75-15.97 21.97 0.95 3.82 0.87 7.9-0.23 11.69-4.8-0.32-9.4-1.07-14.13-1.97-1.58-6.85-1.59-14.69 0.46-21.42 2.06-6.72 6.4-12.84 12.47-16.4 6.06-3.56 13.85-4.32 20.23-1.37 6.78 3.13 11.32 10.04 12.92 17.34 1.6 7.3 0.59 14.95-1.39 22.16l-6.23-0.76c0 0 3.11-8.99 3.11-13.4 0-6.5-1.04-10.48-1.04-10.48z"/>
						<g id="&lt;Group&gt;">
							<path id="&lt;Path&gt;" class="s3" d="m242.38 104.04c-1.05-0.84-2.44-1.49-3.71-1.06-1.32 0.46-2.04 2-1.91 3.39 0.13 1.39 0.93 2.63 1.84 3.69 0.77 0.9 1.67 1.73 2.77 2.14 2.07 0.78 4.3-0.41 4.4-2.74 0.09-1.98-1.97-4.26-3.39-5.42z"/>
						</g>
					</g>
				</g>
				<g id="&lt;Group&gt;">
					<g id="&lt;Group&gt;">
						<path id="&lt;Path&gt;" class="s5" d="m325.84 212.64v9.82h-4.69v-9.82z"/>
					</g>
					<g id="&lt;Group&gt;">
						<path id="&lt;Path&gt;" class="s5" d="m334.59 207.95v14.51h-4.69v-14.51z"/>
					</g>
					<g id="&lt;Group&gt;">
						<path id="&lt;Path&gt;" class="s5" d="m343.34 203.76v18.69h-4.68v-18.69z"/>
					</g>
					<g id="&lt;Group&gt;">
						<path id="&lt;Path&gt;" class="s5" d="m352.1 198.1v24.34h-4.69v-24.34z"/>
					</g>
				</g>
			</g>
		</g>
		<g id="&lt;Group&gt;">
			<path id="&lt;Path&gt;" class="s14" d="m202.5 325.73c0 7-48.15 12.74-108.97 13.16 1.6-8.01 4.24-16.07 7.47-23.98q0.46-1.13 0.94-2.25c56.79 0.87 100.56 6.39 100.56 13.07z"/>
			<g id="&lt;Group&gt;">
				<g id="&lt;Group&gt;">
					<g id="&lt;Group&gt;">
						<g id="&lt;Group&gt;">
							<path id="&lt;Path&gt;" class="s15" d="m180.9 315.98l4.26 7.26h-153.79c-3.74 0-6.77-2.93-6.77-6.53v-12.57c0-3.6 3.03-6.53 6.77-6.53h153.79l-4.26 7.26z"/>
						</g>
						<g id="&lt;Group&gt;">
							<path id="&lt;Path&gt;" class="s7" d="m180.9 315.98l4.26 7.26h-62.47v-25.63h62.47l-4.26 7.26z"/>
						</g>
						<g id="&lt;Group&gt;">
							<path id="&lt;Path&gt;" class="s3" d="m180.89 304.87v11.11h-50.86v-11.11z"/>
						</g>
					</g>
					<g id="&lt;Group&gt;">
						<g id="&lt;Group&gt;">
							<path id="&lt;Path&gt;" class="s8" d="m28.35 258.93l-3.75 6.39h135.43c3.3 0 5.97-2.57 5.97-5.75v-11.06c0-3.18-2.67-5.75-5.97-5.75h-135.43l3.75 6.38z"/>
						</g>
						<g id="&lt;Group&gt;">
							<path id="&lt;Path&gt;" class="s16" d="m28.35 258.93l-3.75 6.39h55.01v-22.56h-55.01l3.75 6.38z"/>
						</g>
						<g id="&lt;Group&gt;">
							<path id="&lt;Path&gt;" class="s4" d="m73.15 249.14v9.79h-44.8v-9.79z"/>
						</g>
					</g>
					<g id="&lt;Group&gt;">
						<g id="&lt;Group&gt;">
							<path id="&lt;Path&gt;" class="s17" d="m36.32 290.79l-4.01 6.82h144.61c3.52 0 6.38-2.75 6.38-6.14v-20c0-3.4-2.86-6.15-6.38-6.15h-144.61l4.01 6.83z"/>
						</g>
						<g id="&lt;Group&gt;">
							<path id="&lt;Path&gt;" class="s18" d="m36.32 290.79l-4.01 6.82h101.23v-32.29h-101.23l4.01 6.83z"/>
						</g>
						<g id="&lt;Group&gt;">
							<path id="&lt;Path&gt;" class="s4" d="m126.64 272.15v18.64h-90.32v-18.64z"/>
						</g>
						<g id="&lt;Group&gt;">
							<path id="&lt;Path&gt;" class="s16" d="m115.06 296.7l-7.26-5.46-7.25 5.46v-13.98h14.51z"/>
						</g>
					</g>
					<g id="&lt;Group&gt;">
						<g id="&lt;Group&gt;">
							<g id="&lt;Group&gt;">
								<g id="&lt;Group&gt;">
									<path id="&lt;Path&gt;" class="s15" d="m174.75 217.63l3.76-6.39h-135.44c-3.29 0-5.97 2.57-5.97 5.75v20.01c0 3.18 2.68 5.76 5.97 5.76h135.44l-3.76-6.39z"/>
								</g>
								<g id="&lt;Group&gt;">
									<path id="&lt;Path&gt;" class="s3" d="m174.75 217.63h-128.85c-1.44 0-2.61 1.17-2.61 2.6v13.53c0 1.44 1.17 2.61 2.61 2.61h128.85z"/>
								</g>
							</g>
							<g id="&lt;Group&gt;">
								<path id="&lt;Path&gt;" class="s4" d="m174.75 217.63v18.74h-85.94v-18.74z"/>
							</g>
						</g>
					</g>
				</g>
				<g id="&lt;Group&gt;">
					<g id="&lt;Group&gt;">
						<g id="&lt;Group&gt;">
							<g id="&lt;Group&gt;">
								<path id="&lt;Path&gt;" class="s17" d="m142.46 179.31l1.79-2.37-91.2-68.8-1.79 2.37z"/>
							</g>
						</g>
						<g id="&lt;Group&gt;">
							<g id="&lt;Group&gt;">
								<g id="&lt;Group&gt;">
									<g id="&lt;Group&gt;">
										<g id="&lt;Group&gt;">
											<g id="&lt;Group&gt;">
												<path id="&lt;Path&gt;" class="s10" d="m147.22 124.78c1.41 4.55 2.09 9.16 2.12 13.69 0.12 20.28-12.94 39.11-33.31 45.4-22.96 7.1-47.22-4.19-56.93-25.49q-1.25-2.74-2.17-5.7c-1.22-3.95-1.89-7.93-2.07-11.88q-0.1-2.25 0.02-4.49c0.38-7.47 2.54-14.67 6.18-21.04 5.74-10.04 15.15-18 27.07-21.68 9.79-3.03 19.82-2.71 28.86 0.3 13.96 4.66 25.55 15.75 30.23 30.89z"/>
											</g>
										</g>
									</g>
								</g>
							</g>
							<g id="&lt;Group&gt;">
								<g id="&lt;Group&gt;">
									<g id="&lt;Group&gt;">
										<path id="&lt;Path&gt;" class="s19" d="m147.22 124.78c1.41 4.55 2.09 9.16 2.12 13.69-1.91-0.02-3.82-0.86-4.96-2.39-0.98-1.29-1.43-2.94-2.54-4.12-1.11-1.18-3.39-1.52-4.14-0.08-1.12-1.43-1.07-3.42-1.69-5.12-0.63-1.7-2.83-3.18-4.16-1.95-0.99 0.91-0.61 2.6 0.21 3.66 0.83 1.06 2 1.84 2.67 3 0.95 1.67 0.57 3.97-0.86 5.25-0.52 0.47-1.17 0.81-1.58 1.38-0.59 0.79-0.61 1.84-0.72 2.81-0.4 3.8-2.45 7.39-5.52 9.66-1.07 0.79-2.27 1.44-3.18 2.42-3.54 3.78-1.19 10.12-3.12 14.93-1.99 1.01-3.46 3-3.84 5.21-2.21-0.17-3.22-2.97-2.88-5.16 0.36-2.19 1.51-4.24 1.48-6.46-0.06-3.43-2.96-6.62-2.08-9.94 0.4-1.51 1.49-3.27 0.43-4.41-1.14-1.21-3.09-0.01-4.36 1.07-1.66 1.41-3.62 2.65-5.79 2.71-2.17 0.06-4.5-1.48-4.63-3.65-0.04-0.75 0.17-1.49 0.27-2.23 0.64-4.94-3.69-9.7-2.53-14.55 0.08-0.32 0.19-0.64 0.44-0.86 0.29-0.26 0.72-0.29 1.09-0.4 3.13-0.9 2.74-6.18 5.7-7.53 2.16 1.75 5.18 2.38 7.86 1.65 0.06-1.3-0.19-3.01-1.47-3.25-0.77-0.14-1.52 0.38-2.3 0.35-1.81-0.08-2.38-2.78-4.11-3.29-1.77-0.52-3.17 1.49-3.91 3.18-1.3-0.19-1.39-2.02-1.13-3.29 0.48-2.3 0.99-4.69 2.46-6.52 1.46-1.82 4.18-2.88 6.21-1.71-0.42 1.76 1.15 3.32 2.55 4.46 1.03 0.83 2.11 1.69 3.41 1.94 1.29 0.24 2.85-0.38 3.2-1.65-1.35-1.68-1.06-4.43 0.6-5.81-1.73-1.94-2.23-4.89-1.24-7.3 0.57 1.24 2.68 0.32 2.88-1.03 0.21-1.35-0.59-2.63-0.92-3.96q-0.19-0.79-0.15-1.6c13.96 4.66 25.55 15.75 30.23 30.89z"/>
									</g>
									<g id="&lt;Group&gt;">
										<path id="&lt;Path&gt;" class="s20" d="m147.22 124.78c1.41 4.55 2.09 9.16 2.12 13.69-1.91-0.02-3.82-0.86-4.96-2.39-0.98-1.29-1.43-2.94-2.54-4.12-1.11-1.18-3.39-1.52-4.14-0.08-1.12-1.43-1.07-3.42-1.69-5.12-0.63-1.7-2.83-3.18-4.16-1.95-0.99 0.91-0.61 2.6 0.21 3.66 0.83 1.06 2 1.84 2.67 3 0.95 1.67 0.57 3.97-0.86 5.25-0.52 0.47-1.17 0.81-1.58 1.38-0.59 0.79-0.61 1.84-0.72 2.81-0.4 3.8-2.45 7.39-5.52 9.66-1.07 0.79-2.27 1.44-3.18 2.42-3.54 3.78-1.19 10.12-3.12 14.93-1.99 1.01-3.46 3-3.84 5.21-2.21-0.17-3.22-2.97-2.88-5.16 0.36-2.19 1.51-4.24 1.48-6.46-0.06-3.43-2.96-6.62-2.08-9.94 0.4-1.51 1.49-3.27 0.43-4.41-1.14-1.21-3.09-0.01-4.36 1.07-1.66 1.41-3.62 2.65-5.79 2.71-2.17 0.06-4.5-1.48-4.63-3.65-0.04-0.75 0.17-1.49 0.27-2.23 0.64-4.94-3.69-9.7-2.53-14.55 0.08-0.32 0.19-0.64 0.44-0.86 0.29-0.26 0.72-0.29 1.09-0.4 3.13-0.9 2.74-6.18 5.7-7.53 2.16 1.75 5.18 2.38 7.86 1.65 0.06-1.3-0.19-3.01-1.47-3.25-0.77-0.14-1.52 0.38-2.3 0.35-1.81-0.08-2.38-2.78-4.11-3.29-1.77-0.52-3.17 1.49-3.91 3.18-1.3-0.19-1.39-2.02-1.13-3.29 0.48-2.3 0.99-4.69 2.46-6.52 1.46-1.82 4.18-2.88 6.21-1.71-0.42 1.76 1.15 3.32 2.55 4.46 1.03 0.83 2.11 1.69 3.41 1.94 1.29 0.24 2.85-0.38 3.2-1.65-1.35-1.68-1.06-4.43 0.6-5.81-1.73-1.94-2.23-4.89-1.24-7.3 0.57 1.24 2.68 0.32 2.88-1.03 0.21-1.35-0.59-2.63-0.92-3.96q-0.19-0.79-0.15-1.6c13.96 4.66 25.55 15.75 30.23 30.89z"/>
									</g>
									<g id="&lt;Group&gt;">
										<path id="&lt;Path&gt;" class="s20" d="m89.02 108.74c1.73 2.18-1.33 5.02-1.6 7.79-0.12 1.17 0.3 2.35 0.15 3.52-0.37 2.86-3.68 4.16-6.46 4.89-0.23-2.25-0.8-4.47-1.68-6.55 0.14 1.53-1.47 2.95-2.98 2.63-1.51-0.33-2.38-2.3-1.62-3.64-1.9-0.7-3.72 1.19-4.69 2.97-0.59 1.1-1.13 2.32-0.97 3.56 0.15 1.24 1.24 2.44 2.48 2.28 0.62 3.23-1.39 6.76-4.48 7.89-0.9 0.32-1.87 0.47-2.68 0.99-1.79 1.13-1.99 4.08-0.37 5.45 0.64 0.54 1.5 0.88 1.87 1.64 0.39 0.8 0.05 1.75-0.03 2.65-0.21 2.63 2.06 4.91 4.56 5.77 2.5 0.86 5.22 0.69 7.86 0.8 0.45 0.02 0.93 0.06 1.32 0.29 0.64 0.39 0.88 1.19 1.06 1.92q0.69 2.82 1.38 5.64c3.56-1.07 8.23-1.79 10.29 1.3 1.73 2.58 0.55 6.62 2.87 8.67 0.84 0.74 1.98 1.04 2.96 1.58 0.97 0.55 1.88 1.57 1.65 2.67-0.38 1.77-3.4 3.01-2.32 4.46 0.24 0.33 0.64 0.5 1.02 0.65 3 1.18 6.32 2.79 7.23 5.88q-4.41-1-8.83-2c-2.81-0.64-5.72-1.32-7.99-3.08-2.28-1.76-3.73-4.94-2.62-7.59-3.49 1.28-7.8-0.21-9.74-3.4-0.9-1.46-1.44-3.34-2.99-4.1-1.1-0.54-2.43-0.35-3.63-0.63-2.25-0.53-3.86-2.99-3.44-5.27q-3.6 0.01-7.19 0.01-0.16 0.01-0.31 0-1.25-2.74-2.17-5.7c-1.22-3.95-1.89-7.93-2.07-11.88 0.41-1.52 0.59-3.03 0.02-4.49 0.38-7.47 2.54-14.67 6.18-21.04 0.01 1.41-0.38 2.97-0.11 3.23 0.66 0.63 1.88 0.51 2.41-0.24q0.83 1.08 1.66 2.16 0.59-1 1.19-2.01c0.38 1.05 2.02-0.14 1.89-1.25-0.13-1.1-0.84-2.29-0.25-3.23 1.01-1.6 3.85 0.12 5.31-1.09 1.53-1.27-0.26-3.83 0.36-5.72 0.33-1.01 1.31-1.65 2.22-2.21q2.52-1.55 5.03-3.09c1.92-1.18 4.25-2.39 6.29-1.45 1.09 2.03-1.22 4.84 0.12 6.72 0.48 0.67 1.33 1.01 1.84 1.65z"/>
									</g>
									<g id="&lt;Group&gt;">
										<path id="&lt;Path&gt;" class="s20" d="m69.54 137.86c-0.17 0.06-0.36 0.13-0.44 0.3-0.06 0.13-0.04 0.28-0.01 0.41 0.13 0.72 0.32 1.53 0.94 1.91 0.25 0.16 0.57 0.26 0.68 0.53 0.09 0.22-0.01 0.46-0.05 0.69-0.28 1.38 1.09 2.49 2.29 3.22 0.45 0.28 1 0.57 1.47 0.34q-0.88-1.89-2.16-3.54c0.55 0.07 0.98-0.48 1.21-0.98 0.24-0.51 0.48-1.1 1.02-1.27 0.2-0.06 0.45-0.06 0.61-0.21 0.11-0.12 0.14-0.29 0.16-0.45 0.17-1.42 0.53-4.45-1.56-4.22-1.53 0.17-2.59 2.67-4.16 3.27z"/>
									</g>
									<g id="&lt;Group&gt;">
										<path id="&lt;Path&gt;" class="s20" d="m90.99 136.53c0.2 0.73 0.22 1.5 0.33 2.24 0.27 1.84 1.15 3.58 2.47 4.89 0.23 0.22 0.57 0.45 0.85 0.28 0.25-0.15 0.24-0.52 0.2-0.81q-0.33-2.19-0.66-4.37c0.77-0.1 1.14-1.08 0.93-1.82-0.21-0.74-0.8-1.3-1.33-1.87-0.52-0.56-1.04-1.23-1.03-2.01 1.38-0.6 1.63-2.4 1.68-3.9 0.11-3.08-3.12-1.43-3.82 0.32-0.97 2.44-0.26 4.7 0.38 7.05z"/>
									</g>
									<g id="&lt;Group&gt;">
										<path id="&lt;Path&gt;" class="s20" d="m110.35 106.93c0.48 0.45 0.31 1.24 0.14 1.87-0.17 0.64-0.22 1.48 0.35 1.8q0.16 0.1 0.34 0.07c0.13-0.03 0.23-0.14 0.32-0.24 0.77-0.86 1.56-1.76 1.86-2.87 0.3-1.11-0.06-2.49-1.1-2.98-0.46-0.21-0.97-0.23-1.47-0.22-0.21 0.01-0.43 0.02-0.6 0.13-0.72 0.48 0.28 1.65-0.04 2.45"/>
									</g>
									<g id="&lt;Group&gt;">
										<path id="&lt;Path&gt;" class="s20" d="m110.83 101.44c-1.16-0.57-2.1-1.58-2.59-2.78-0.13-0.32-0.23-0.67-0.15-1.01 0.16-0.65 0.9-0.95 1.55-1.08 0.65-0.12 1.39-0.2 1.82-0.7 0.43-0.5 0.66-1.4 1.31-1.31 0.32 0.04 0.54 0.36 0.63 0.67 0.32 1.07-0.63 2.31-1.74 2.29-0.29 0-0.6-0.07-0.83 0.1-0.28 0.21-0.25 0.64-0.17 0.98q0.28 1.34 0.72 2.64-0.56 0.18-1.13 0.36-0.09-0.31 0.01-0.62"/>
									</g>
								</g>
							</g>
						</g>
						<g id="&lt;Group&gt;">
							<g id="&lt;Group&gt;">
								<path id="&lt;Path&gt;" class="s17" d="m131.21 211.24h-59.27c1.31-1.13 3.47-2.88 6.21-4.78 0.98-0.68 2.06-1.38 3.18-2.06 4.33-2.69 9.56-5.22 14.75-6.14 2.67-1.82 6.21-1.73 8.79 0.26l0.21 0.17c5.17 1.17 10.65 3.6 15.24 6.01q1.19 0.61 2.27 1.22c4.95 2.77 8.41 5.18 8.62 5.32z"/>
							</g>
						</g>
						<path id="&lt;Path&gt;" class="s18" d="m131.21 211.24h-59.27c1.31-1.13 3.47-2.88 6.21-4.78 0.98-0.68 2.06-1.38 3.18-2.06 4.05 2.65 10.26 5.39 18.17 4.94 7.97-0.44 15.51-2.67 20.82-4.64q1.19 0.61 2.27 1.22c4.95 2.77 8.41 5.18 8.62 5.32z"/>
						<g id="&lt;Group&gt;">
							<g id="&lt;Group&gt;">
								<path id="&lt;Path&gt;" class="s17" d="m41.61 139.93c0.37 18.28 8.99 34.58 22.18 45.43 11.07 9.13 25.37 14.41 40.71 13.8 17.48-0.7 33.01-8.84 43.6-21.27 0.67-0.79 0.99-1.75 0.97-2.69-0.02-1.16-0.56-2.3-1.57-3.07-1.66-1.25-4.02-1.02-5.38 0.57-9.83 11.59-24.61 18.89-41.13 18.57-26.72-0.53-49.06-21.47-51.28-48.11-1.04-12.48 2.35-24.19 8.75-33.71 0.47-0.68 0.69-1.47 0.67-2.24-0.02-1.11-0.52-2.2-1.41-2.95q-0.09-0.08-0.17-0.14c-1.83-1.38-4.43-0.91-5.7 0.98-6.69 9.95-10.49 21.97-10.24 34.83z"/>
							</g>
						</g>
					</g>
				</g>
			</g>
		</g>
		<g id="&lt;Group&gt;">
			<path id="&lt;Path&gt;" class="s21" d="m483.8 327.06c-64.26 0-116.2-5.89-116.2-13.18 0-7.29 51.94-13.19 116.2-13.19 64.26 0 116.2 5.9 116.2 13.19 0 7.29-51.94 13.18-116.2 13.18z"/>
			<g id="&lt;Group&gt;">
				<g id="&lt;Group&gt;">
					<path id="&lt;Path&gt;" class="s11" d="m528.64 152.03c0 0-4.63 2.59-4.6 5.11 0.03 2.52 2.4 10.89 2.4 10.89l6.87-10.01z"/>
					<g id="&lt;Group&gt;">
						<g id="&lt;Group&gt;">
							<g id="&lt;Group&gt;">
								<path id="&lt;Path&gt;" class="s3" d="m430.83 313.84l-25.42 10.19-12.56-29.72 18.48 15.15 14.22-6.05z"/>
							</g>
							<path id="&lt;Path&gt;" class="s22" d="m413.95 320.61l-2.62-11.15-18.48-15.15 12.56 29.72z"/>
						</g>
						<g id="&lt;Group&gt;">
							<g id="&lt;Group&gt;">
								<path id="&lt;Path&gt;" class="s8" d="m412.05 305.81q-1.19 2.43-2.38 4.86c-0.5 1.04-2.03 0.1-1.52-0.93l2.37-4.86c0.51-1.04 2.03-0.1 1.53 0.93z"/>
							</g>
							<g id="&lt;Group&gt;">
								<path id="&lt;Path&gt;" class="s8" d="m410 303.53q-1.22 2.73-2.7 5.33c-0.57 1-2.1 0.07-1.52-0.93q1.37-2.4 2.5-4.91c0.46-1.04 2.19-0.55 1.72 0.51z"/>
							</g>
						</g>
					</g>
					<path id="&lt;Path&gt;" class="s22" d="m539.69 279.51c0 0-59.16-11.58-66.75-8.53-6.03 2.41-51.73 31.88-51.73 31.88l7.23 13.62c0 0 48.26-16.86 55.05-21.82 0 0 61.21 6.44 72.13-7.92z"/>
					<g id="&lt;Group&gt;">
						<g id="&lt;Group&gt;">
							<path id="&lt;Path&gt;" class="s12" d="m520.18 199.42c0 0-9.6 5.17-10.36 6.69-0.76 1.53-6.48 26.54-6.48 26.54h20.7l-2.29-28.82z"/>
						</g>
						<g id="&lt;Group&gt;">
							<g id="&lt;Group&gt;">
								<g id="&lt;Group&gt;">
									<g id="&lt;Group&gt;">
										<path id="&lt;Path&gt;" class="s3" d="m532.02 178.93l-1.75 16.51c2.14 1.38 4.48 2.2 6.88 2.46 2.42 0.25 4.89-0.06 7.25-0.97l1.74-16.51z"/>
									</g>
								</g>
								<g id="&lt;Group&gt;">
									<path id="&lt;Path&gt;" class="s3" d="m529.06 155.98c0 0-9.23 20.49-1.01 30.96 0 0 19.18 8.24 23.66-23.48z"/>
								</g>
								<g id="&lt;Group&gt;">
									<path id="&lt;Path&gt;" class="s3" d="m548.93 171.27c0 0 3.08-4 4.93-2.12 1.85 1.88-2.09 10.63-7.21 10.09z"/>
								</g>
							</g>
						</g>
						<g id="&lt;Group&gt;">
							<path id="&lt;Path&gt;" class="s12" d="m513.88 258.59l6.3-59.17 7.02-2.65 1.28-5.51c3.05 0 20.83-3.05 20.83-3.05l2.92 7.66c6.21 0.82 15.87 2.38 17.91 4.36l-4.01 56.33c1.16 3.92 3.44 11.7 4.01 14.32 0.76 3.55-5.64 8.63-5.64 8.63 0 0-38.47 0.15-51.05-2.4 0 0-3-1.15-4.14-4.96-0.83-2.77 2.61-9.86 4.57-13.56z"/>
						</g>
						<g id="&lt;Group&gt;">
							<path id="&lt;Path&gt;" class="s16" d="m517.64 223.92c-1.4-2.19-2.07-4.67-1.99-7.27 0.03-0.97 1.56-0.98 1.52 0q-0.08 2.86 1.17 5.35c0.66-4.96 1.58-9.88 2.82-14.75 0.24-0.95 1.71-0.55 1.47 0.4q-2.81 11-3.61 22.33c-0.07 0.98-1.6 0.98-1.53 0q0.21-2.89 0.54-5.76-0.23-0.06-0.39-0.3z"/>
						</g>
						<g id="&lt;Group&gt;">
							<path id="&lt;Path&gt;" class="s16" d="m529.22 199.11q1.32 0.28 2.63 0.44v-4.93c0-0.98 1.52-0.98 1.52 0v4.95q0 0.07-0.02 0.13 4.35 0.32 8.55-0.66-0.29-2.12-0.58-4.23c-0.13-0.96 1.34-1.37 1.47-0.41q0.29 2.12 0.58 4.24 1.21-0.35 2.41-0.81-0.07-2.84-0.15-5.69c-0.02-0.98 1.5-0.98 1.53 0q0.06 2.52 0.12 5.04 0.58-0.25 1.15-0.52c0.88-0.44 1.65 0.87 0.77 1.32q-1.02 0.5-2.06 0.93-0.24 0.26-0.59 0.25c-5.66 2.25-11.67 2.74-17.73 1.42-0.96-0.21-0.56-1.68 0.4-1.47z"/>
						</g>
						<g id="&lt;Group&gt;">
							<path id="&lt;Path&gt;" class="s12" d="m570.14 200.23c0 0 6.09 4.49 7.87 9.31 1.78 4.83 1.02 24.38 0 34.29 0 0 3.4 11.43 1.07 18.03-2.34 6.61-39.04 12.01-39.04 12.01l-5.06-23.44 29.52-2.79z"/>
						</g>
						<g id="&lt;Group&gt;">
							<g id="&lt;Group&gt;">
								<g id="&lt;Group&gt;">
									<path id="&lt;Path&gt;" class="s15" d="m476.32 264.7h56.44l-4.58-39.3h-56.43z"/>
								</g>
								<g id="&lt;Group&gt;">
									<path id="&lt;Path&gt;" class="s3" d="m505.09 246.11c-1.68 0-3.04-1.36-3.04-3.04 0-0.71 0.26-1.35 0.66-1.87q-0.6-0.18-1.26-0.2c-2.62 0-4.74 2.13-4.74 4.74 0 2.62 2.12 4.74 4.74 4.74 2.56 0 4.63-2.04 4.72-4.58q-0.51 0.2-1.08 0.21z"/>
								</g>
							</g>
							<g id="&lt;Group&gt;">
								<path id="&lt;Path&gt;" class="s3" d="m530.23 242.99c0 0 3.54 1.35 4.45 2.87 0.91 1.51 1.17 2.65 1.17 2.65l3.84 0.91 0.35 10.09c0 0-7.03 1.42-8.06 1.72-1.02 0.31-8.88-1.59-9.3-1.78-0.42-0.19-6.42-8.28-6.46-8.96-0.04-0.69 1.41-4.41 1.41-4.41 0 0 4.55-0.64 4.93-0.41 0.38 0.22 8.26 2.38 8.26 2.38z"/>
							</g>
						</g>
						<g id="&lt;Group&gt;">
							<path id="&lt;Path&gt;" class="s16" d="m539.51 245.75c-0.05-0.41 0.19-0.87 0.72-0.89q9.91-0.4 19.39 2.16-0.78-1.79-1.55-3.59c-0.33-0.8-0.72-1.81-0.09-2.57 0.48-0.6 1.15-0.62 1.8-0.43-0.84-9.61 0.26-19.12 3.3-28.29 0.31-0.92 1.78-0.53 1.47 0.41-3.07 9.26-4.14 18.86-3.19 28.57q1.8 0.88 3.59 1.76c0.88 0.43 0.11 1.75-0.77 1.32q-1.24-0.6-2.47-1.21c-0.41-0.2-2.15-1.37-2.53-0.95-0.17 0.18 0.89 2.21 1.02 2.5q0.54 1.26 1.08 2.51 0.09 0.24 0.04 0.45 1.27 0.37 2.53 0.8c0.92 0.32 0.53 1.79-0.41 1.47q-10.94-3.75-22.5-3.4c-1.06 6.24-0.94 12.41 0.35 18.6 7.98 2.39 16.13 2.81 24.32 1.2 0.96-0.18 1.37 1.28 0.4 1.47-8.54 1.68-17.09 1.26-25.42-1.28-0.3 0.01-0.6-0.15-0.68-0.54q-2.18-10-0.4-20.07z"/>
						</g>
					</g>
					<g id="&lt;Group&gt;">
						<g id="&lt;Group&gt;">
							<g id="&lt;Group&gt;">
								<path id="&lt;Path&gt;" class="s3" d="m454.91 325.98l-19.58 19.14-22.98-22.65 22.87 6.92 10.82-11.03z"/>
							</g>
							<path id="&lt;Path&gt;" class="s22" d="m441.91 338.69l-6.69-9.3-22.87-6.92 22.98 22.65z"/>
						</g>
						<g id="&lt;Group&gt;">
							<g id="&lt;Group&gt;">
								<path id="&lt;Path&gt;" class="s8" d="m434.49 325.75q-0.17 2.7-0.33 5.4c-0.07 1.15-1.84 0.87-1.77-0.28l0.33-5.4c0.07-1.15 1.84-0.87 1.77 0.28z"/>
							</g>
							<g id="&lt;Group&gt;">
								<path id="&lt;Path&gt;" class="s8" d="m431.72 324.43q-0.07 2.99-0.45 5.95c-0.14 1.15-1.91 0.87-1.77-0.28q0.36-2.73 0.44-5.49c0.03-1.14 1.81-1.34 1.78-0.18z"/>
							</g>
						</g>
					</g>
					<path id="&lt;Path&gt;" class="s11" d="m554.12 311.32c17.44-6.99 8.5-31.25 8.5-31.25-15.18-2.34-68.62-9.97-78.57-3.29-6.55 4.41-41.48 43.26-41.48 43.26l11.17 12.38c16.07-16.15 40.38-35.47 40.38-35.47 0 0 17.77 5.57 32.71 10.7 10.01 3.44 18.46 5.73 27.29 3.67z"/>
					<path id="&lt;Path&gt;" class="s11" d="m554.45 171.64c1.95-3.16 3.23-6.87 2.85-10.56-0.38-3.69-2.65-7.31-6.12-8.63-1.73-0.65-3.62-0.71-5.43-1.06-1.81-0.34-3.7-1.06-4.72-2.6-1.01-1.54-0.66-4.04 1.05-4.72-2.7 0.29-5.3 1.48-7.28 3.34q0.52-2.39 1.05-4.78c-5.34 0.94-9.3 6.73-8.24 12.05 1.05 5.32 6.93 9.15 12.22 7.98 1.42-0.31 3.1-0.24 4.52 0.1 1.42 0.33 2.77 1.18 3.44 2.47 0.99 1.92 0.31 4.25-0.39 6.3 1.95-1.45 5.03-1.24 7.05 0.11z"/>
				</g>
				<g id="&lt;Group&gt;">
					<g id="&lt;Group&gt;">
						<path id="&lt;Path&gt;" class="s17" d="m567.92 114.88c0-7.12-5.82-12.88-12.97-12.76-7 0.11-12.78 6.2-12.54 13.2 0.09 2.86 1.14 5.49 2.82 7.57 2.6 3.22 3.85 7.32 3.85 11.46v0.16h12.16v-0.15c0-4.34 1.64-8.43 4.21-11.92 1.55-2.12 2.47-4.73 2.47-7.56z"/>
						<g id="&lt;Group&gt;">
							<g id="&lt;Group&gt;">
								<path id="&lt;Path&gt;" class="s18" d="m554.21 118.65c-0.1-1.89-0.33-4.11-2.31-4.99-3.81-1.7-6.15 3.23-3.42 5.81 0.69 0.65 1.77-0.01 1.66-0.9-0.09-0.81-1.14-1.42-0.34-2.31 0.28-0.32 0.78-0.41 1.19-0.28 0.41 0.13 0.74 0.47 0.93 0.86 0.47 0.92 0.35 2.13 0.38 3.13q0.05 1.98 0.09 3.96 0.09 3.95 0.18 7.9c0.03 1.25 1.98 1.26 1.95 0-0.1-4.38-0.06-8.8-0.31-13.18z"/>
							</g>
							<g id="&lt;Group&gt;">
								<path id="&lt;Path&gt;" class="s18" d="m556.11 118.65c0.1-1.89 0.34-4.11 2.31-4.99 3.81-1.7 6.16 3.23 3.43 5.81-0.69 0.65-1.78-0.01-1.67-0.9 0.1-0.81 1.14-1.42 0.35-2.31-0.29-0.32-0.78-0.41-1.2-0.28-0.41 0.13-0.74 0.47-0.93 0.86-0.46 0.92-0.35 2.13-0.38 3.13q-0.04 1.98-0.09 3.96-0.09 3.95-0.18 7.9c-0.03 1.25-1.97 1.26-1.94 0 0.1-4.38 0.06-8.8 0.3-13.18z"/>
							</g>
						</g>
						<path id="&lt;Path&gt;" class="s11" d="m563.19 129.64v5.72h-16.05v-5.72z"/>
						<path id="&lt;Path&gt;" class="s11" d="m558.08 141.44h-5.84c-1.83 0-3.32-1.49-3.32-3.33v-4.59h12.49v4.59c0 1.84-1.49 3.33-3.33 3.33z"/>
					</g>
					<g id="&lt;Group&gt;">
						<g id="&lt;Group&gt;">
							<path id="&lt;Path&gt;" class="s3" d="m572.52 101.37l10.79-12.23 4.51 7.19z"/>
						</g>
						<g id="&lt;Group&gt;">
							<path id="&lt;Path&gt;" class="s3" d="m567.52 101.37l-1.93-10.32 5.43 0.56z"/>
						</g>
						<g id="&lt;Group&gt;">
							<path id="&lt;Path&gt;" class="s3" d="m572.1 107.67l10.43-1.16-0.96 5.38z"/>
						</g>
					</g>
				</g>
			</g>
		</g>
		<g id="&lt;Group&gt;">
			<g id="&lt;Group&gt;">
				<path id="&lt;Path&gt;" class="s3" d="m137.15 7.77l1.28-3.77 1.27 3.77c1.64 4.85 5.04 8.91 9.53 11.36-4.49 2.46-7.89 6.52-9.53 11.37l-1.27 3.77-1.28-3.77c-1.63-4.85-5.04-8.91-9.53-11.37 4.49-2.45 7.9-6.51 9.53-11.36z"/>
			</g>
			<g id="&lt;Group&gt;">
				<path id="&lt;Path&gt;" class="s3" d="m549.21 33.4l1.27-3.77 1.28 3.77c1.64 4.85 5.04 8.9 9.53 11.36-4.49 2.46-7.89 6.52-9.53 11.37l-1.28 3.76-1.27-3.76c-1.64-4.85-5.04-8.91-9.53-11.37 4.49-2.46 7.89-6.51 9.53-11.36z"/>
			</g>
			<g id="&lt;Group&gt;">
				<path id="&lt;Path&gt;" class="s3" d="m117.44 36.88l0.88-2.61 0.88 2.61c1.14 3.36 3.5 6.18 6.62 7.88-3.12 1.71-5.48 4.52-6.62 7.88l-0.88 2.62-0.88-2.62c-1.14-3.36-3.5-6.17-6.61-7.88 3.11-1.7 5.47-4.52 6.61-7.88z"/>
			</g>
			<g id="&lt;Group&gt;">
				<path id="&lt;Path&gt;" class="s3" d="m526.55 11.25l0.88-2.61 0.89 2.61c1.13 3.36 3.49 6.18 6.61 7.88-3.12 1.71-5.48 4.52-6.61 7.89l-0.89 2.61-0.88-2.61c-1.13-3.37-3.49-6.18-6.61-7.89 3.12-1.7 5.48-4.52 6.61-7.88z"/>
			</g>
			<g id="&lt;Group&gt;">
				<path id="&lt;Path&gt;" class="s3" d="m579.28 164.06l0.89-2.61 0.88 2.61c1.14 3.37 3.5 6.18 6.61 7.89-3.11 1.7-5.47 4.51-6.61 7.88l-0.88 2.61-0.89-2.61c-1.13-3.37-3.49-6.18-6.61-7.88 3.12-1.71 5.48-4.52 6.61-7.89z"/>
			</g>
			<g id="&lt;Group&gt;">
				<path id="&lt;Path&gt;" class="s17" d="m37.07 183.66l0.89-2.62 0.88 2.62c1.13 3.36 3.5 6.18 6.61 7.88-3.11 1.7-5.48 4.52-6.61 7.88l-0.88 2.62-0.89-2.62c-1.13-3.36-3.49-6.18-6.61-7.88 3.12-1.7 5.48-4.52 6.61-7.88z"/>
			</g>
			<g id="&lt;Group&gt;">
				<path id="&lt;Path&gt;" class="s17" d="m14.19 159.38l1.39-4.13 1.4 4.13c1.79 5.32 5.52 9.77 10.44 12.46h0.01-0.01c-4.92 2.69-8.65 7.14-10.44 12.45l-1.4 4.13-1.39-4.13c-1.8-5.31-5.53-9.76-10.45-12.45 4.92-2.69 8.65-7.14 10.45-12.46z"/>
			</g>
		</g>
	</g>
	<g id="Layer 1">
	</g>
</svg>